<svg xmlns="http://www.w3.org/2000/svg" width="36" height="24" viewBox="0 0 36 24" fill="none">
  <rect width="35" height="23" x=".5" y=".5" fill="#fff" stroke="#F2F2F2" rx="2.5" />
  <g clip-path="url(#clip0)">
    <path fill="#016FD0" d="M9 3h17.96v9.72l-.9 1.39.9 1.24V21H9v-9.16l.56-.64-.56-.61V3z" />
    <path fill="#fff" d="M12.49 15.54v-2.82h2.98l.32.42.33-.42h10.84v2.63s-.29.19-.62.2h-6l-.36-.45v.44H18.8v-.76s-.16.1-.51.1h-.4v.66h-1.8l-.31-.42-.33.42H12.5zM9 10.59L9.67 9h1.17l.38.89V9h1.45l.22.64.22-.64h6.5v.32s.34-.32.9-.32l2.1.01.38.87v-.88h1.22l.33.5v-.5h1.22v2.83h-1.22l-.32-.5v.5h-1.78l-.18-.45h-.48l-.17.45h-1.2c-.5 0-.8-.31-.8-.31v.31h-1.82l-.36-.45v.45h-6.77l-.17-.45H10l-.18.45H9v-1.25z" />
    <path fill="#016FD0" d="M9.91 9.36l-.9 2.12h.58l.17-.43h.98l.16.43h.6l-.9-2.12h-.69zm.34.5l.3.74h-.6l.3-.75zM11.57 11.48V9.36h.84l.49 1.37.47-1.37h.84v2.12h-.53V9.92l-.56 1.56h-.46l-.56-1.56v1.56h-.53zM14.57 11.48V9.36h1.72v.48H15.1v.36h1.16v.44H15.1v.38h1.19v.46h-1.72zM16.6 9.36v2.12h.52v-.75h.23l.63.75h.64l-.7-.78a.64.64 0 00.59-.65c0-.45-.35-.69-.74-.69H16.6zm.52.48h.6c.15 0 .26.1.26.22 0 .14-.14.22-.25.22h-.6v-.44zM19.26 11.48h-.54V9.36h.54v2.12zM20.54 11.48h-.12c-.56 0-.9-.45-.9-1.05 0-.62.34-1.07 1.05-1.07h.58v.5h-.6c-.3 0-.5.23-.5.57 0 .41.24.59.57.59h.14l-.22.46zM21.69 9.36l-.91 2.12h.6l.16-.43h.97l.17.43h.6l-.9-2.12h-.7zm.33.5l.3.74h-.6l.3-.75zM23.34 11.48V9.36h.68l.85 1.33V9.36h.53v2.12h-.65l-.88-1.37v1.37h-.53zM12.85 15.18v-2.12h1.72v.48h-1.19v.36h1.16v.45h-1.16v.37h1.19v.46h-1.72zM21.28 15.18v-2.12h1.73v.48h-1.2v.36h1.16v.45h-1.15v.37H23v.46h-1.73zM14.64 15.18l.83-1.04-.85-1.08h.66l.51.67.51-.67h.64l-.84 1.06.84 1.06h-.67l-.5-.65-.48.65h-.65zM17 13.07v2.11h.54v-.67h.56c.47 0 .82-.25.82-.73 0-.4-.28-.71-.76-.71H17zm.54.47h.59c.15 0 .26.1.26.25 0 .14-.11.24-.27.24h-.58v-.49zM19.15 13.06v2.12h.53v-.75h.22l.63.75h.65l-.7-.78a.64.64 0 00.58-.65c0-.44-.35-.69-.73-.69h-1.18zm.53.48h.6c.15 0 .25.11.25.22 0 .14-.13.22-.24.22h-.61v-.44zM23.25 15.18v-.46h1.06c.15 0 .22-.08.22-.18 0-.08-.07-.17-.22-.17h-.48c-.42 0-.65-.26-.65-.64 0-.34.21-.67.83-.67h1.03l-.22.48h-.9c-.16 0-.21.1-.21.18 0 .08.06.18.19.18h.5c.46 0 .66.26.66.6 0 .38-.22.68-.68.68h-1.13zM25.19 15.18v-.46h1.05c.16 0 .23-.08.23-.18 0-.08-.07-.17-.23-.17h-.47c-.42 0-.65-.26-.65-.64 0-.34.21-.67.83-.67h1.03l-.23.48h-.89c-.17 0-.22.1-.22.18 0 .08.07.18.2.18h.5c.46 0 .66.26.66.6 0 .38-.22.68-.69.68H25.2z" />
  </g>
  <defs>
    <clipPath id="clip0">
      <path fill="#fff" d="M0 0h18v18H0z" transform="translate(9 3)" />
    </clipPath>
  </defs>
</svg>
