<?xml version="1.0" encoding="UTF-8"?>
<svg width="72px" height="28px" viewBox="0 0 72 28" version="1.1" xmlns="http://www.w3.org/2000/svg" xmlns:xlink="http://www.w3.org/1999/xlink">
    <!-- Generator: Sketch 52.6 (67491) - http://www.bohemiancoding.com/sketch -->
    <title>Group 4</title>
    <desc>Created with Sketch.</desc>
    <g id="Poubelle" stroke="none" stroke-width="1" fill="none" fill-rule="evenodd">
        <g id="Artboard" transform="translate(-301.000000, -212.000000)" fill="#22BFD3" fill-rule="nonzero">
            <g id="Group-4" transform="translate(301.000000, 212.000000)">
                <path d="M64.7095276,19.8931144 L62.6803633,17.8615044 C62.6136814,17.8053794 62.6010824,17.7096481 62.6510904,17.6390802 L64.1995022,15.1111491 C64.2342438,15.0429869 64.2372998,14.9919822 64.2372998,14.9696773 C64.2373888,14.8098294 64.1039327,14.6801289 63.9391014,14.6798707 L62.8048539,14.6798707 C62.6932125,14.6787955 62.5897583,14.7365429 62.5346418,14.8307012 L61.553032,16.4740825 C61.5083183,16.5364736 61.4106881,16.5531633 61.3397574,16.506058 L59.7549956,14.9244438 L59.7183239,14.8302333 L59.7685062,14.7208929 L59.7874853,14.7046712 C60.6833672,14.1993033 61.7045438,13.4570053 61.7045438,12.1472603 C61.7045438,10.644103 60.5920097,9.63523902 58.9361564,9.63523902 C57.313597,9.63523902 56.0838102,10.6882447 56.0838102,12.2594083 C56.0838102,12.9516375 56.3818477,13.6401232 56.9944893,14.3660435 L57.0096084,14.3821092 L57.0398464,14.48911 C57.0355655,14.5291114 57.0148723,14.5657615 56.9824263,14.5908074 C55.63217,15.3345093 54.9521361,16.3193526 54.9521361,17.5244366 C54.9521361,19.5683687 56.715431,20.6388439 58.4599075,20.6388439 C59.6562395,20.6388439 60.5887929,20.1933715 61.4885349,19.1919945 L61.5051015,19.1701576 C61.5597873,19.1200887 61.6590259,19.1200887 61.7201453,19.1792043 L62.8095183,20.2730761 L62.8376654,20.301932 C62.8963722,20.3571481 62.9722889,20.38616 63.0507791,20.38616 L64.3880074,20.3878757 L64.4919104,20.3878757 C64.6577579,20.3876234 64.7924117,20.2578063 64.7936472,20.0969773 C64.7940776,20.0209881 64.7638943,19.9478393 64.7095276,19.8931144 Z M58.9643035,11.1513425 C59.6444981,11.1513425 60.0120187,11.6066415 60.0120187,12.1627021 C60.0120187,12.8126613 59.4133702,13.1895035 58.6926438,13.5794479 L58.6562938,13.5967614 C58.5970819,13.6264049 58.5247999,13.6145845 58.4788867,13.5677495 L58.4632852,13.5513719 C58.149807,13.2191393 57.779552,12.6903748 57.779552,12.3076055 C57.7801954,11.6576463 58.259661,11.1513425 58.9643035,11.1513425 Z M60.4184628,18.0918835 L60.4139593,18.0990585 C59.8897799,18.7034722 59.3152575,19.1074545 58.4779217,19.1074545 C57.4852138,19.1074545 56.7081932,18.4152254 56.7081932,17.5330153 C56.7081932,16.7506311 57.0531961,16.2850375 58.0735685,15.6877988 C58.1443384,15.6477125 58.224437,15.6558234 58.2736542,15.7040205 L60.4038263,17.8655599 C60.4421064,17.9012788 60.4589946,17.9377776 60.4607639,17.9789557 L60.4615681,17.9820752 L60.4184628,18.0918835 Z M53.609761,19.0876454 L53.5454248,19.0892051 C51.9170751,19.0892051 51.0913198,18.2517607 51.0913198,16.6021403 L51.0913198,11.7387547 C51.0913198,11.6542147 51.1620896,11.5852726 51.2507128,11.5852726 L53.8030913,11.5852726 C53.9706563,11.5853603 54.1067654,11.4540636 54.1075625,11.2915665 L54.1075625,10.2123566 C54.1072966,10.049418 53.9711099,9.91741852 53.8030913,9.91724676 L51.2579506,9.91724676 C51.2138463,9.91749591 51.1714602,9.90067965 51.1401828,9.87052356 C51.1089055,9.84036747 51.091319,9.79936124 51.0913198,9.7565897 L51.0913198,7.52142884 C51.0967884,7.36389134 50.9665075,7.22522714 50.799555,7.21789618 L50.7640093,7.21789618 L49.4579841,7.31616215 C49.2984303,7.31616215 49.1609116,7.44827529 49.1609116,7.61033615 L49.1609116,9.76314076 C49.1607846,9.8041068 49.1438261,9.84333434 49.11379,9.87214038 C49.0837538,9.90094642 49.0431173,9.91695508 49.0008753,9.91662285 L47.3989035,9.91506307 C47.2311083,9.91506081 47.0948348,10.0465173 47.0939498,10.2092371 L47.0905721,11.2957779 C47.0939498,11.3762624 47.1277263,11.4500399 47.1865939,11.5026044 C47.2459441,11.5576645 47.3239518,11.5863644 47.4056588,11.5846487 L49.0024837,11.5846487 C49.0902378,11.5843892 49.1616669,11.6530309 49.1621983,11.7381308 L49.1612333,16.9270419 C49.1612333,19.7118682 51.3226085,20.7049784 53.2190793,20.7049784 C53.2190793,20.7049784 53.4428085,20.7090339 53.6142645,20.6921883 C53.7862031,20.6770584 53.9151972,20.560699 53.9151972,20.3987942 L53.9151972,19.3801036 C53.9139577,19.2176206 53.7773118,19.0867807 53.609761,19.0876454 Z M46.3003626,19.965332 C46.1966204,19.6828564 46.1681516,19.3719928 46.1605921,19.2356682 C46.1549627,19.1349066 46.15062,18.725933 46.15062,18.725933 L46.1512634,13.5875587 C46.1512634,10.8737022 44.1708338,9.90773212 42.3182724,9.90773212 C40.8512458,9.90773212 39.5135351,10.2805189 38.6523948,10.8375154 C38.5849452,10.8808904 38.5370436,10.9475312 38.5184146,11.0239087 C38.501848,11.0997139 38.5184146,11.1756751 38.5616807,11.2399379 L39.2436446,12.1346261 C39.3415034,12.2628519 39.5272701,12.2913734 39.6611867,12.198733 L39.7528658,12.1405533 C40.4258226,11.7342313 41.2208574,11.5008886 42.0298853,11.5008886 C44.3154294,11.5008886 44.2486806,13.2362968 44.2486806,13.4619966 C44.2486806,13.5769522 44.1769457,13.6054961 44.090896,13.6039364 L43.7383336,13.5967614 C41.9653883,13.5334344 37.4650699,14.1194427 37.4650699,17.5787168 C37.4650699,19.6098588 39.2121199,20.6464868 40.8411129,20.6464868 C42.4194411,20.6464868 43.6895989,20.0387976 44.3226673,19.2947838 L44.3302268,19.2868289 L44.3620732,19.2706072 L44.402605,19.3108495 C44.4018008,19.40506 44.402605,19.6199974 44.4233534,19.8070147 C44.4383116,19.9762505 44.4603468,20.1015006 44.4894589,20.1935275 C44.5158367,20.2747919 44.5705225,20.3555883 44.650782,20.3948947 C44.6893837,20.41408 44.7326498,20.4251544 44.7780068,20.4268701 L46.0443044,20.427806 C46.2085226,20.427806 46.3425028,20.2991244 46.3425028,20.1450184 C46.3426636,20.0951055 46.3003626,19.965332 46.3003626,19.965332 Z M44.3305484,15.9421985 C44.0720777,17.7161332 43.1716923,18.7393471 41.5092445,19.0032614 C40.3392904,19.1899668 39.2783862,18.7226575 39.2209661,17.507435 C39.1572733,16.1719537 40.7577975,15.0504738 43.7113124,15.1735402 C43.7113124,15.1735402 43.9287688,15.1858625 44.0741686,15.203176 C44.2039669,15.2167461 44.283583,15.2565204 44.3326394,15.3309218 C44.3799265,15.4015797 44.3889336,15.5427395 44.3305484,15.9421985 Z M70.7981463,19.0876454 L70.7344535,19.0892051 C69.1054605,19.0892051 68.2792226,18.2517607 68.2792226,16.6021403 L68.2792226,11.7387547 C68.2797539,11.6537159 68.351085,11.5850992 68.4387764,11.5852726 L70.991155,11.5852726 C71.1600375,11.5852726 71.296752,11.4531595 71.296752,11.2915665 L71.296752,10.2123566 C71.2960435,10.0491703 71.1594303,9.91724531 70.991155,9.91724676 L68.447301,9.91724676 C68.4029729,9.91778839 68.3602633,9.90111149 68.3286904,9.87093262 C68.2971175,9.84075375 68.279305,9.79958088 68.2792226,9.7565897 L68.2792226,7.52142884 C68.2866213,7.36389134 68.1558579,7.22522714 67.9879404,7.21789618 L67.9531988,7.21789618 L66.6470128,7.31616215 C66.4858506,7.31616215 66.3488144,7.44827529 66.3488144,7.61033615 L66.3488144,9.76314076 C66.348637,9.84795701 66.2776863,9.91662302 66.1902256,9.91662285 L64.5864846,9.91506307 C64.4190561,9.91549026 64.2833634,10.0468714 64.2826568,10.2092371 L64.2800834,11.2957779 C64.283461,11.3762624 64.3169158,11.4500399 64.3746576,11.5026044 C64.4330427,11.5576645 64.5100853,11.5863644 64.5934007,11.5846487 L66.1902256,11.5846487 C66.2776034,11.5849039 66.3484461,11.653396 66.3489752,11.7381308 L66.3489752,16.9270419 C66.3489752,19.7118682 68.5103504,20.7049784 70.4061779,20.7049784 C70.4061779,20.7049784 70.6308722,20.7090339 70.8029715,20.6921883 C70.973945,20.6770584 71.1019741,20.560699 71.1019741,20.3987942 L71.1019741,19.3801036 C71.1032608,19.2180427 70.966868,19.0876454 70.7981463,19.0876454 Z M31.762951,10.9975217 C31.762951,10.7454617 31.7298179,10.2449292 31.6074182,9.73176246 C31.5224815,9.38809314 31.4248961,9.04748 31.3148493,8.71057627 C31.5059278,9.34181813 31.478585,9.78760248 31.478585,9.95668234 C31.478585,10.7303319 30.4849121,15.450218 20.7633881,16.3094993 C19.921227,16.3809371 13.7446285,16.4753036 8.3725544,15.1583836 C4.79835588,14.2827247 1.21177264,12.5869348 0.533186396,10.232451 C0.427353319,9.86559135 0.476731366,9.52665174 0.557794999,9.21173271 C0.281103367,10.1680044 0.100124752,11.1479183 0.0173707785,12.1378749 C0.0776859817,14.6140213 2.29792882,17.4997653 6.3599567,18.7463393 C11.0039057,20.1627731 13.8548043,20.2101903 20.6041559,18.7503947 C31.8686233,16.3137107 31.762951,11.5303416 31.762951,10.9975217 Z M6.70930236,24.1731165 C4.05430754,23.1077886 2.21670435,21.3368174 1.48021551,20.043918 C2.15601569,21.4346661 3.03981786,22.7210505 4.10304222,23.861473 C7.56336564,27.0158106 12.8823624,27.398112 15.3266561,27.398112 C25.6707938,27.398112 29.363371,22.1259088 30.200546,20.7141543 C30.3556122,20.4308459 30.5008785,20.1425944 30.6361022,19.8498817 C29.0011581,23.1197989 20.5111901,29.701903 6.70930236,24.1731165 Z M17.9652452,22.1059436 C14.8341623,22.2132563 9.32360453,21.1677376 5.85137891,19.7907662 C3.0583829,18.6876917 0.293373148,16.5344191 0,14.4791006 C0.0325174397,14.9679473 0.0895762519,15.4549672 0.170973496,15.9384282 C1.88296022,24.996055 13.651341,24.4796127 15.6761626,24.2628037 C30.4771917,22.6691792 31.7497621,16.5415941 31.9453442,15.3312069 C31.9734913,15.0777431 32.0016384,14.826463 32.022226,14.5695677 C31.7586083,16.1830013 29.2573771,21.7120999 17.9652452,22.1059436 Z M4.58331208,3.78994686 C4.58331208,5.20918821 6.70930236,7.47601254 12.8781805,7.47601254 C16.534086,7.47601254 19.4859925,6.78986651 21.7144382,6.07252494 C25.2887975,4.92094137 27.0567568,3.51293041 26.9922597,2.46491605 C26.9840569,2.3034791 26.9187556,2.03894087 26.7204392,1.82961876 C25.9249932,1.13704798 25.059524,0.524071071 24.1371793,0 C24.7480516,0.343151003 25.0933763,0.745573544 25.0933763,1.19120192 C25.0933763,2.752383 21.1571257,4.1839466 16.0163403,4.314188 C10.87652,4.44021801 6.61633653,3.21360915 6.50133554,1.65648348 C6.46498558,1.13957329 6.84682102,0.631241869 7.575107,0.181402099 C7.02107745,0.512998541 6.48889683,0.877757581 5.98165975,1.27355816 C4.55017893,2.42467379 4.58331208,3.63958432 4.58331208,3.78994686 Z M1.27691306,8.1983454 C1.27691306,7.53185257 1.37422159,7.06641503 1.55693644,6.64808276 C1.87041466,6.02916313 2.220082,5.4298967 2.61108536,4.8583943 C2.50943413,5.01951929 2.45249658,5.20466486 2.45249658,5.42552932 C2.45249658,6.87284667 6.10775873,8.75425003 11.0978365,9.36895826 C12.7890748,9.57812439 17.2659105,10.1702159 20.7302549,9.89366734 C27.7284269,9.33370729 29.2815032,6.96378168 29.2815032,5.42552932 C29.2815032,5.00376554 29.0468368,4.38890133 28.8104012,4.03046451 C29.1290706,4.43973734 29.4275505,4.86343263 29.7048355,5.30012323 C30.2422037,6.20323428 30.1725598,6.56182707 30.1725598,6.71952056 C30.1725598,9.86574733 24.1334799,11.9170104 20.0963823,12.9893573 C9.7305311,15.7339414 1.27691306,11.9915678 1.27691306,8.1983454 Z" id="Shape"></path>
                <path d="M0.140922242,15.7382786 C0.0828443959,15.593286 0.0350774718,15.4500927 0.00688025662,15.30525 C0.0392860113,15.6732043 0.0923136099,16.0338116 0.161544086,16.3933692 C0.130909755,16.1757141 0.124015128,15.9566936 0.140922242,15.7382786 M0.541754755,10.2723428 C0.441582431,10.605211 0.356784656,10.9470756 0.281021411,11.2917891 C0.32096354,11.1587918 0.384997747,11.0146988 0.464882006,10.8590605 C0.461077994,10.6549913 0.493570599,10.4576694 0.541754755,10.2723428 M1.46708075,20.6656276 C1.83194894,21.4057346 2.26465534,22.1097059 2.74507039,22.7740928 C2.48748303,22.3811465 2.27004241,21.9658853 2.09569379,21.5339338 C1.83606995,21.2312037 1.62748327,20.9383697 1.46708075,20.6656276 M3.45863971,8.02038441 C3.26241607,7.87974009 3.09044301,7.73609697 2.94557354,7.59185408 C2.26037582,8.03927693 1.69199298,8.51653796 1.26261509,9.02048842 C1.25881108,9.10025684 1.25881108,9.18377377 1.25881108,9.26744065 C1.25881108,9.42622778 1.27513663,9.58951312 1.30762924,9.74830025 C1.83194894,9.1912708 2.55280927,8.59210804 3.45863971,8.02038441 M28.4750928,7.87584164 C28.9001911,8.08500882 29.2845549,8.30812048 29.6251725,8.54742573 C29.6975473,8.31987651 29.7340779,8.08347938 29.7335868,7.84585351 C29.7335868,7.69831193 29.7971456,7.35644728 29.2929554,6.51153182 C29.0207858,6.08953966 28.7263969,5.68073699 28.4109001,5.28666679 L28.399488,5.27587107 C28.6316913,5.62058458 28.8556525,6.20055495 28.8556525,6.60209596 C28.855494,6.98504434 28.7512007,7.42512009 28.4750928,7.87584164 M2.6086419,6.07190589 C2.5501432,6.14044174 2.49185493,6.20961961 2.43335623,6.2791185 L2.53394033,6.18955642 C2.55561431,6.14878803 2.58149682,6.11235328 2.6086419,6.07190589 M24.7084866,2.34932981 C25.3374166,2.59208369 25.914834,2.89151513 26.4231451,3.25886968 L26.3359698,3.14911314 C25.8265362,2.71614069 25.2881009,2.31471537 24.7240196,1.94733897 C24.5773657,1.86174731 24.426169,1.78332536 24.2710251,1.712382 C24.5040209,1.90970387 24.6563399,2.12186987 24.7084866,2.34932981 M27.614118,23.2894388 C27.5727279,23.5044633 27.5191835,23.7172344 27.4537155,23.9268364 C28.7440681,22.8387172 29.4452744,21.8155224 29.7573619,21.3067738 L29.790013,21.2494965 L29.7778085,21.1401897 C29.2970764,21.8108742 28.5713026,22.5611771 27.614118,23.2894388 M8.47977748,23.2894388 C8.47977748,22.6292502 8.64842202,22.0002492 8.95306001,21.4130817 C8.56745743,21.3155798 8.18396712,21.2107501 7.80282178,21.0986562 C7.50214631,21.7165615 7.33746428,22.3792991 7.33746428,23.0648277 C7.33746428,23.3761045 7.37344389,23.6825831 7.4376366,23.9791657 C7.82627986,24.0968691 8.21904413,24.1952301 8.6114914,24.2821957 C8.52325622,23.9579005 8.47899619,23.624303 8.47977748,23.2894388 M31.1559705,10.7725447 C31.1193568,10.6319004 31.0835357,10.491556 31.0435936,10.3479128 C31.0213542,10.2983921 30.9960017,10.2501749 30.9676718,10.20352 C31.0363026,10.5752228 31.020611,10.8364194 31.020611,10.9577214 C31.020611,11.2001754 30.9155252,11.852867 30.4351101,12.6450033 C30.6549503,12.8840087 30.8478455,13.1335099 31.007614,13.3914078 C31.3081309,12.6520505 31.3009984,12.1142135 31.3009984,11.9584252 C31.3009984,11.7203195 31.2683473,11.256853 31.1559705,10.7725447 M31.1436074,16.5878422 C30.9960434,16.8901225 30.7990273,17.2241902 30.5504985,17.5723524 C30.6189707,17.7888667 30.6628754,18.0007328 30.6874429,18.2027028 C30.9107938,17.8409254 31.094701,17.4586118 31.2363302,17.0616546 C31.2113642,16.9027282 31.180437,16.744691 31.1436074,16.5878422 M29.4403609,19.7562377 C29.3536042,19.5318426 29.2548904,19.3117478 29.1445989,19.0967988 C28.6394578,19.5329761 28.0312913,19.9682538 27.30948,20.3744429 C27.4178943,20.6465852 27.5099831,20.9305727 27.5733833,21.21531 C28.3349783,20.7335507 28.9483753,20.2418954 29.4403609,19.7562377 M5.65482282,6.8752878 C7.32240673,6.154973 9.36944086,5.58684794 11.7854642,5.34769263 C10.956348,5.24513324 10.1945945,5.10913709 9.52175985,4.93820476 C7.93818122,5.35159109 6.45239741,5.84789458 5.1538027,6.4206678 C5.29391715,6.57255766 5.4617692,6.72384776 5.65482282,6.8752878 M1.6674254,19.3316058 C1.66836968,18.9083883 1.71666436,18.4864541 1.81150237,18.0728542 C1.58357863,17.8681853 1.36674993,17.6635163 1.17448881,17.4506006 C1.03025334,18.0578602 0.990311209,18.6682685 1.06607445,19.278077 C1.26894435,19.6545374 1.50198726,20.0157506 1.76315971,20.3585492 C1.69927233,20.0195785 1.66723581,19.6759223 1.6674254,19.3316058 M1.07431648,12.2851458 C0.661422643,12.8195342 0.348542629,13.4034031 0.161036522,14.0402009 C0.208428175,14.2336243 0.272620883,14.4297467 0.348542629,14.6237699 C0.585659398,13.9905706 0.97826517,13.3686168 1.49878086,12.7777008 C1.34329185,12.618014 1.19905639,12.4554784 1.07431648,12.2851458 M6.5433767,3.39156714 C5.83472091,3.67240595 5.19770734,3.9644903 4.65278258,4.25237631 C4.55673127,4.52931666 4.52820117,4.7527282 4.52075165,4.89307263 C5.21720291,4.55165781 6.05107411,4.20259602 6.98067962,3.86208085 C6.78794299,3.71004104 6.64450003,3.55485249 6.5433767,3.39156714 M26.5119054,4.21444133 C25.7862901,3.9755859 24.9211943,3.80105501 23.9549751,3.67975304 C22.829146,4.49842889 20.5524446,5.15801773 17.7162364,5.41921431 C19.4993672,5.5907464 21.6719337,5.88193111 23.7425844,6.33715087 C25.309679,5.62073452 26.235005,4.87418011 26.5119054,4.21444133 M23.6951928,21.8069757 C23.8393634,22.1661395 23.9308754,22.5422846 23.9671797,22.9249331 C24.4076136,22.770707 24.8420285,22.6015141 25.2695784,22.4176839 C25.2174892,22.0715027 25.1246111,21.7319231 24.992678,21.4052848 C24.5663617,21.5564235 24.13348,21.6904402 23.6951928,21.8069757 M22.2843797,26.701038 C22.9803335,26.4772512 23.6603336,26.2113061 24.3201603,25.9048532 C24.5535908,25.5958258 24.7510148,25.2638269 24.9089897,24.9146453 C24.3731648,25.1689707 23.8232725,25.3958585 23.2616939,25.5943262 C22.997949,25.9918188 22.668902,26.3633717 22.2843797,26.701038 M3.86345002,23.1299019 C3.99944346,23.6762856 4.21547966,24.1985288 4.50125609,24.7065277 C5.0617139,25.1460037 5.66290635,25.5256534 6.28771537,25.8517742 C5.83503791,25.2752525 5.48617828,24.6543483 5.26633806,24.0024065 C4.77767143,23.7430333 4.30888631,23.4514796 3.86345002,23.1299019 M28.402658,14.7147838 C28.7757682,15.0107666 29.0957808,15.3016515 29.3644391,15.593286 C29.7530824,15.244824 30.0659624,14.9034091 30.3103702,14.5820864 C30.1156745,14.2613284 29.8944572,13.9556452 29.6487891,13.6678983 C29.3173645,14.0171101 28.9084332,14.3739688 28.402658,14.7147838 M2.11217784,17.1208812 C2.50494212,16.1669588 3.1467107,15.2755618 3.99135993,14.4754786 C3.71428518,14.3411787 3.44278372,14.1968287 3.1774598,14.0427499 C2.43615289,14.8090965 1.86364904,15.6348195 1.49862236,16.4887314 C1.68971216,16.7107685 1.89459238,16.9218578 2.11217784,17.1208812 M30.9625232,10.0241857 C30.9408492,9.95730319 30.9149667,9.88488135 30.8922406,9.81697306 C30.9094956,9.87380266 30.9246463,9.92611872 30.9355885,9.97781929 L30.9625232,10.0241857 M9.14437013,25.498814 C8.6991966,25.3634639 8.25709302,25.2192389 7.81835483,25.0662353 C8.17513949,25.7913482 8.72418527,26.4543856 9.42459904,27.0307574 C9.98899037,27.1773994 10.5600626,27.2999746 11.1360876,27.398112 C10.2904873,26.8796173 9.60544812,26.2306742 9.14437013,25.498814 M13.5846035,10.6927763 C12.4670164,10.5830198 11.5294859,10.4647166 10.9363769,10.393045 C10.5594572,10.3489803 10.1837933,10.2957839 9.80975529,10.2335081 C7.68220289,10.8704559 5.81427434,11.8339745 4.35543561,12.9819199 C4.66274277,13.1426572 4.97717826,13.2908841 5.29787967,13.426194 C7.42162805,11.9621737 10.3231384,10.9659681 13.5846035,10.6927763 M4.98515815,22.3485613 C4.98515815,21.6327447 5.11718908,20.927274 5.37459392,20.2528411 C4.94521602,20.0747116 4.52408016,19.8686932 4.11213732,19.6499298 C3.83999194,20.3357583 3.69496397,21.0571226 3.69496397,21.7958801 C3.69496397,21.9428219 3.7030475,22.0879645 3.71525204,22.2311578 C4.13311614,22.5280526 4.57356984,22.7953729 5.03302531,23.0309411 C5.00132207,22.8047153 4.98533205,22.5767664 4.98515815,22.3485613 M9.41730801,16.2116412 C9.02454374,16.136221 8.63605898,16.0491055 8.25074423,15.9585414 C8.00253243,15.8976655 7.75812464,15.8372394 7.51371685,15.7679668 C6.23160619,16.6100334 5.21324039,17.6227324 4.55261025,18.7514855 C4.97326303,18.9477471 5.40540271,19.12116 5.84692545,19.2708799 C6.23160619,18.6267349 6.73643033,18.0316206 7.36536037,17.507728 C7.95831079,17.0162226 8.64842202,16.5830441 9.41730801,16.2116412 M5.47888725,9.07461699 C4.23988874,9.64634062 3.02942032,10.3591584 2.05575166,11.2310632 C2.21085416,11.4166088 2.37971359,11.5914811 2.5610513,11.754356 C3.62237074,10.8673072 4.96154158,10.0708226 6.44336288,9.42637772 C6.11812673,9.3185267 5.79648212,9.20121742 5.47888725,9.07461699 M26.1470372,15.870976 C25.4417099,16.1399695 24.6360518,16.3816738 23.7189679,16.5830441 C24.3841945,16.9661424 24.985387,17.3943729 25.5059026,17.8681853 C26.2546591,17.5615567 26.9078397,17.2426329 27.4740035,16.9205605 C27.0614294,16.5383548 26.6177413,16.1874129 26.1470372,15.870976 M24.2800597,12.474221 C25.1172594,12.1518486 25.927197,11.7958895 26.6559824,11.4012458 C25.8986669,11.0187472 25.0172456,10.6699853 23.9947587,10.377901 C23.00524,10.6091094 21.8271057,10.7873888 20.4284972,10.8972953 C20.0122748,10.9311819 19.5836895,10.9502244 19.142424,10.9616199 C20.1206892,11.1361507 21.0582197,11.375456 21.9429696,11.6511968 C22.8007744,11.9207901 23.5747324,12.1935321 24.2800597,12.474221 M27.7818115,10.7158672 C28.5793861,10.1577881 29.1885036,9.53988277 29.5013836,8.86140141 C29.1201899,8.63798987 28.6868495,8.42957239 28.2184804,8.2365988 C27.7542324,8.80052552 26.9926375,9.35860455 25.8024571,9.82476998 C26.5038219,10.0940634 27.1693655,10.393045 27.7818115,10.7158672 M18.8094144,17.0995896 C17.8042042,17.0961409 16.4374543,17.053108 14.8955613,16.9403526 C12.1625369,17.2391843 9.83780988,18.3959763 8.51559859,19.9956929 C8.95321851,20.0904554 9.38481541,20.169774 9.80991379,20.2372473 C11.2037673,18.7904701 13.5603529,17.8378973 16.2328301,17.8378973 C18.1844469,17.8378973 19.9683702,18.3413979 21.3305236,19.1800159 C21.8364214,19.0610738 22.338887,18.9294294 22.837388,18.7852222 C21.7516595,17.9971342 20.3684255,17.4062182 18.8094144,17.0995896 M18.4932059,7.98214954 C19.5710094,7.75903788 20.5410326,7.49319314 21.3988373,7.22389977 C21.8713274,7.07620824 22.3078378,6.92101969 22.7134406,6.76957965 C21.5072517,6.55726371 20.4326182,6.42441631 19.7077954,6.3638403 C16.9511544,6.12453505 12.8474176,6.86689112 11.7853057,7.0760583 C11.4570511,7.1369342 9.95906277,7.4321673 8.13091785,8.03477871 C8.55950324,8.1565305 9.03674828,8.25893995 9.55330146,8.34170718 C11.2083638,7.90208125 12.9198524,7.65587873 14.5417881,7.65587873 C15.6162631,7.65632855 16.9912551,7.76233658 18.4932059,7.98214954 M19.8038467,13.8730171 C20.072505,13.8008957 20.3528924,13.729374 20.6372424,13.6494556 C19.4113994,13.3995046 18.1088422,13.2668071 16.7541383,13.2668071 C14.193087,13.2668071 11.8014727,13.7479666 9.78138369,14.5820864 C12.6756031,14.9648848 16.1171247,14.8242405 19.8038467,13.8730171" id="Shape"></path>
            </g>
        </g>
    </g>
</svg>