<svg xmlns="http://www.w3.org/2000/svg" width="36" height="24" viewBox="0 0 36 24" fill="none">
  <rect width="35" height="23" x=".5" y=".5" fill="#fff" stroke="#F2F2F2" rx="2.5"/>
  <path fill="#FF8330" d="M19.2 13.9a1.9 1.9 0 001.86-1.93 1.9 1.9 0 00-1.85-1.93 1.9 1.9 0 00-1.85 1.93 1.9 1.9 0 001.85 1.93z"/>
  <path fill="#FF8431" d="M19.21 13.89c1.02 0 1.84-.86 1.84-1.92s-.82-1.91-1.84-1.91-1.84.85-1.84 1.91.82 1.92 1.84 1.92z"/>
  <path fill="#FF8432" d="M19.21 13.88c1.01 0 1.84-.85 1.84-1.9 0-1.06-.83-1.91-1.84-1.91-1 0-1.83.85-1.83 1.9 0 1.06.82 1.91 1.83 1.91z"/>
  <path fill="#FF8533" d="M19.22 13.87c1 0 1.82-.84 1.82-1.9 0-1.04-.82-1.89-1.82-1.89-1.01 0-1.83.85-1.83 1.9 0 1.05.82 1.9 1.83 1.9z"/>
  <path fill="#FF8534" d="M19.22 13.87c1 0 1.81-.85 1.81-1.89s-.81-1.88-1.81-1.88-1.81.84-1.81 1.88.8 1.89 1.8 1.89z"/>
  <path fill="#FF8635" d="M19.22 13.86c1 0 1.8-.84 1.8-1.88 0-1.03-.8-1.87-1.8-1.87s-1.8.84-1.8 1.87c0 1.04.8 1.88 1.8 1.88z"/>
  <path fill="#FF8636" d="M19.22 13.85c1 0 1.8-.83 1.8-1.86 0-1.03-.8-1.87-1.8-1.87-.99 0-1.8.84-1.8 1.87 0 1.03.81 1.86 1.8 1.86z"/>
  <path fill="#FE8737" d="M19.23 13.85c.98 0 1.78-.84 1.78-1.86 0-1.03-.8-1.86-1.78-1.86-.99 0-1.79.83-1.79 1.86 0 1.02.8 1.86 1.79 1.86z"/>
  <path fill="#FE8838" d="M19.23 13.84c.98 0 1.77-.83 1.77-1.85s-.8-1.84-1.77-1.84c-.98 0-1.78.82-1.78 1.84s.8 1.85 1.78 1.85z"/>
  <path fill="#FE8839" d="M19.23 13.83A1.8 1.8 0 0021 11.99a1.8 1.8 0 00-1.77-1.83 1.8 1.8 0 00-1.76 1.83 1.8 1.8 0 001.76 1.84z"/>
  <path fill="#FE893A" d="M19.23 13.82A1.8 1.8 0 0021 12c0-1.01-.79-1.83-1.76-1.83A1.8 1.8 0 0017.48 12c0 1 .78 1.82 1.75 1.82z"/>
  <path fill="#FE893B" d="M19.24 13.81c.96 0 1.74-.8 1.74-1.81 0-1-.78-1.82-1.74-1.82-.97 0-1.75.82-1.75 1.82s.78 1.81 1.75 1.81z"/>
  <path fill="#FE8A3C" d="M19.24 13.8c.96 0 1.74-.8 1.74-1.8s-.78-1.8-1.74-1.8-1.74.8-1.74 1.8.78 1.8 1.74 1.8z"/>
  <path fill="#FE8A3D" d="M19.24 13.8c.95 0 1.73-.8 1.73-1.8 0-.99-.78-1.8-1.73-1.8s-1.73.81-1.73 1.8c0 1 .78 1.8 1.73 1.8z"/>
  <path fill="#FE8B3E" d="M19.25 13.8c.94 0 1.71-.8 1.71-1.8 0-.98-.77-1.78-1.71-1.78-.95 0-1.72.8-1.72 1.79 0 .98.77 1.78 1.72 1.78z"/>
  <path fill="#FE8C3F" d="M19.25 13.79c.94 0 1.7-.8 1.7-1.78s-.76-1.78-1.7-1.78-1.7.8-1.7 1.78.76 1.78 1.7 1.78z"/>
  <path fill="#FE8C40" d="M19.25 13.78c.94 0 1.7-.8 1.7-1.77s-.76-1.76-1.7-1.76-1.7.79-1.7 1.76c0 .98.76 1.77 1.7 1.77z"/>
  <path fill="#FE8D41" d="M19.25 13.77c.93 0 1.69-.78 1.69-1.75s-.76-1.76-1.69-1.76c-.93 0-1.68.79-1.68 1.76s.75 1.75 1.68 1.75z"/>
  <path fill="#FE8D42" d="M19.26 13.77c.92 0 1.67-.79 1.67-1.75s-.75-1.74-1.67-1.74c-.93 0-1.68.78-1.68 1.74s.75 1.75 1.68 1.75z"/>
  <path fill="#FE8E43" d="M19.26 13.76a1.7 1.7 0 001.67-1.74 1.7 1.7 0 00-1.67-1.73 1.7 1.7 0 00-1.67 1.73c0 .96.75 1.74 1.67 1.74z"/>
  <path fill="#FD8E44" d="M19.26 13.75a1.7 1.7 0 001.66-1.72 1.7 1.7 0 00-1.66-1.73 1.7 1.7 0 00-1.66 1.73c0 .95.74 1.72 1.66 1.72z"/>
  <path fill="#FD8F45" d="M19.26 13.74c.91 0 1.65-.76 1.65-1.71s-.74-1.72-1.65-1.72c-.9 0-1.65.77-1.65 1.72s.74 1.71 1.65 1.71z"/>
  <path fill="#FD9046" d="M19.27 13.74c.9 0 1.63-.77 1.63-1.7 0-.95-.73-1.71-1.63-1.71-.91 0-1.64.76-1.64 1.7s.73 1.7 1.64 1.7z"/>
  <path fill="#FD9047" d="M19.27 13.73c.9 0 1.63-.76 1.63-1.7 0-.93-.73-1.7-1.63-1.7-.9 0-1.63.77-1.63 1.7 0 .94.73 1.7 1.63 1.7z"/>
  <path fill="#FD9148" d="M19.27 13.72c.9 0 1.62-.75 1.62-1.68 0-.93-.73-1.69-1.62-1.69-.9 0-1.62.76-1.62 1.69 0 .93.73 1.68 1.62 1.68z"/>
  <path fill="#FD9149" d="M19.27 13.71c.9 0 1.61-.75 1.61-1.67 0-.93-.72-1.68-1.6-1.68-.9 0-1.62.75-1.62 1.68 0 .92.72 1.67 1.61 1.67z"/>
  <path fill="#FD924A" d="M19.28 13.7c.88 0 1.6-.74 1.6-1.66 0-.92-.72-1.67-1.6-1.67-.89 0-1.6.75-1.6 1.67 0 .92.71 1.67 1.6 1.67z"/>
  <path fill="#FD924B" d="M19.28 13.7c.88 0 1.59-.74 1.59-1.66 0-.91-.71-1.65-1.6-1.65-.87 0-1.58.74-1.58 1.65 0 .92.7 1.66 1.59 1.66z"/>
  <path fill="#FD934C" d="M19.28 13.7c.87 0 1.58-.74 1.58-1.65 0-.91-.7-1.65-1.58-1.65-.87 0-1.58.74-1.58 1.65 0 .9.7 1.64 1.58 1.64z"/>
  <path fill="#FD944D" d="M19.28 13.68a1.6 1.6 0 001.57-1.63c0-.9-.7-1.64-1.57-1.64a1.6 1.6 0 00-1.57 1.64c0 .9.7 1.63 1.57 1.63z"/>
  <path fill="#FD944E" d="M19.29 13.68a1.6 1.6 0 001.56-1.63c0-.9-.7-1.62-1.56-1.62a1.6 1.6 0 00-1.57 1.62c0 .9.7 1.63 1.57 1.63z"/>
  <path fill="#FD954F" d="M19.29 13.67c.86 0 1.55-.72 1.55-1.62 0-.89-.7-1.61-1.55-1.61-.86 0-1.55.72-1.55 1.61 0 .9.7 1.62 1.55 1.62z"/>
  <path fill="#FC9550" d="M19.3 13.66c.84 0 1.53-.72 1.53-1.6 0-.9-.69-1.61-1.54-1.61-.85 0-1.54.72-1.54 1.6 0 .9.69 1.61 1.54 1.61z"/>
  <path fill="#FC9651" d="M19.3 13.66c.84 0 1.53-.72 1.53-1.6 0-.88-.69-1.6-1.54-1.6-.84 0-1.53.72-1.53 1.6 0 .88.69 1.6 1.53 1.6z"/>
  <path fill="#FC9652" d="M19.3 13.65c.84 0 1.52-.71 1.52-1.59 0-.87-.68-1.58-1.52-1.58-.85 0-1.53.7-1.53 1.58 0 .88.68 1.59 1.53 1.59z"/>
  <path fill="#FC9753" d="M19.3 13.64c.84 0 1.51-.7 1.51-1.58 0-.87-.67-1.57-1.5-1.57-.85 0-1.52.7-1.52 1.57 0 .87.67 1.58 1.51 1.58z"/>
  <path fill="#FC9854" d="M19.3 13.63c.83 0 1.5-.7 1.5-1.56 0-.87-.67-1.57-1.5-1.57s-1.5.7-1.5 1.57c0 .86.67 1.56 1.5 1.56z"/>
  <path fill="#FC9855" d="M19.3 13.62c.83 0 1.5-.7 1.5-1.55 0-.86-.67-1.55-1.5-1.55-.82 0-1.49.7-1.49 1.55 0 .86.67 1.55 1.5 1.55z"/>
  <path fill="#FC9956" d="M19.3 13.62c.83 0 1.5-.7 1.5-1.54 0-.86-.67-1.55-1.5-1.55-.81 0-1.48.7-1.48 1.55 0 .85.67 1.54 1.49 1.54z"/>
  <path fill="#FC9957" d="M19.31 13.61a1.5 1.5 0 001.48-1.53 1.5 1.5 0 00-1.48-1.54 1.5 1.5 0 00-1.48 1.54c0 .85.67 1.53 1.48 1.53z"/>
  <path fill="#FC9A58" d="M19.31 13.6a1.5 1.5 0 001.47-1.52 1.5 1.5 0 00-1.47-1.53 1.5 1.5 0 00-1.46 1.53c0 .84.65 1.53 1.46 1.53z"/>
  <path fill="#FC9A59" d="M19.32 13.6c.8 0 1.45-.68 1.45-1.52 0-.83-.65-1.51-1.45-1.51-.8 0-1.46.68-1.46 1.51 0 .84.65 1.52 1.46 1.52z"/>
  <path fill="#FC9B5A" d="M19.32 13.6c.8 0 1.44-.68 1.44-1.51 0-.84-.64-1.51-1.44-1.51-.8 0-1.45.67-1.45 1.5 0 .84.65 1.51 1.45 1.51z"/>
  <path fill="#FC9C5B" d="M19.32 13.58c.8 0 1.44-.67 1.44-1.5 0-.82-.65-1.49-1.44-1.49-.8 0-1.44.67-1.44 1.5 0 .82.65 1.5 1.44 1.5z"/>
  <path fill="#FC9C5C" d="M19.32 13.58c.8 0 1.43-.67 1.43-1.49s-.64-1.48-1.43-1.48c-.78 0-1.42.66-1.42 1.48s.64 1.49 1.42 1.49z"/>
  <path fill="#FB9D5D" d="M19.33 13.57c.78 0 1.41-.66 1.41-1.48 0-.81-.63-1.47-1.41-1.47-.79 0-1.42.66-1.42 1.47 0 .82.63 1.48 1.42 1.48z"/>
  <path fill="#FB9D5E" d="M19.33 13.56c.78 0 1.4-.65 1.4-1.46 0-.81-.62-1.47-1.4-1.47-.78 0-1.41.66-1.41 1.47 0 .8.63 1.46 1.4 1.46z"/>
  <path fill="#FB9E5F" d="M19.33 13.55c.77 0 1.4-.65 1.4-1.45 0-.8-.63-1.46-1.4-1.46-.77 0-1.4.65-1.4 1.46 0 .8.63 1.45 1.4 1.45z"/>
  <path fill="#FB9E60" d="M19.33 13.55c.77 0 1.4-.65 1.4-1.45 0-.8-.63-1.44-1.4-1.44-.76 0-1.39.64-1.39 1.44 0 .8.63 1.45 1.4 1.45z"/>
  <path fill="#FB9F61" d="M19.34 13.54a1.4 1.4 0 001.37-1.44c0-.79-.61-1.43-1.37-1.43a1.4 1.4 0 00-1.38 1.43c0 .8.61 1.44 1.38 1.44z"/>
  <path fill="#FBA062" d="M19.34 13.53a1.4 1.4 0 001.37-1.42 1.4 1.4 0 00-1.37-1.43 1.4 1.4 0 00-1.37 1.43c0 .78.61 1.42 1.37 1.42z"/>
  <path fill="#FBA063" d="M19.34 13.52c.75 0 1.36-.63 1.36-1.41 0-.78-.6-1.42-1.36-1.42-.75 0-1.36.64-1.36 1.42 0 .78.61 1.41 1.36 1.41z"/>
  <path fill="#FBA164" d="M19.34 13.52c.75 0 1.35-.63 1.35-1.4 0-.78-.6-1.41-1.35-1.41-.74 0-1.35.63-1.35 1.4 0 .78.6 1.4 1.35 1.4z"/>
  <path fill="#FBA165" d="M19.35 13.51c.74 0 1.34-.63 1.34-1.4 0-.77-.6-1.4-1.34-1.4-.75 0-1.35.63-1.35 1.4 0 .78.6 1.4 1.35 1.4z"/>
  <path fill="#FBA266" d="M19.35 13.5c.73 0 1.33-.62 1.33-1.38 0-.77-.6-1.39-1.33-1.39-.74 0-1.33.62-1.33 1.39 0 .76.6 1.38 1.33 1.38z"/>
  <path fill="#FBA267" d="M19.35 13.5c.73 0 1.32-.62 1.32-1.38 0-.76-.59-1.38-1.32-1.38-.73 0-1.32.62-1.32 1.38 0 .76.6 1.37 1.32 1.37z"/>
  <path fill="#FBA368" d="M19.36 13.49c.72 0 1.3-.61 1.3-1.37 0-.75-.58-1.36-1.3-1.36-.73 0-1.32.6-1.32 1.36 0 .76.6 1.37 1.32 1.37z"/>
  <path fill="#FBA469" d="M19.36 13.48c.72 0 1.3-.6 1.3-1.36 0-.74-.58-1.35-1.3-1.35-.72 0-1.3.6-1.3 1.35 0 .75.58 1.36 1.3 1.36z"/>
  <path fill="#FAA46A" d="M19.36 13.47c.71 0 1.3-.6 1.3-1.34 0-.75-.59-1.35-1.3-1.35-.71 0-1.29.6-1.29 1.35 0 .74.58 1.34 1.3 1.34z"/>
  <path fill="#FAA56B" d="M19.36 13.46c.71 0 1.28-.6 1.28-1.33a1.3 1.3 0 00-1.28-1.33c-.7 0-1.28.6-1.28 1.33 0 .74.58 1.33 1.28 1.33z"/>
  <path fill="#FAA56C" d="M19.37 13.46c.7 0 1.27-.6 1.27-1.33a1.3 1.3 0 00-1.27-1.32c-.7 0-1.28.6-1.28 1.32 0 .74.57 1.33 1.28 1.33z"/>
  <path fill="#FAA66D" d="M19.37 13.45c.7 0 1.26-.59 1.26-1.31 0-.73-.56-1.32-1.26-1.32s-1.27.6-1.27 1.32c0 .72.57 1.31 1.27 1.31z"/>
  <path fill="#FAA66E" d="M19.37 13.44c.7 0 1.25-.58 1.25-1.3 0-.72-.56-1.3-1.25-1.3-.7 0-1.25.58-1.25 1.3 0 .72.56 1.3 1.25 1.3z"/>
  <path fill="#FAA76F" d="M19.37 13.44c.69 0 1.25-.58 1.25-1.3 0-.71-.56-1.3-1.25-1.3-.68 0-1.24.59-1.24 1.3 0 .72.56 1.3 1.24 1.3z"/>
  <path fill="#FAA870" d="M19.38 13.43c.68 0 1.23-.58 1.23-1.28 0-.71-.55-1.29-1.23-1.29-.69 0-1.24.58-1.24 1.29 0 .7.55 1.28 1.24 1.28z"/>
  <path fill="#FAA871" d="M19.38 13.42c.67 0 1.22-.57 1.22-1.27 0-.7-.55-1.28-1.22-1.28-.68 0-1.23.57-1.23 1.28 0 .7.55 1.27 1.23 1.27z"/>
  <path fill="#FAA972" d="M19.38 13.41c.67 0 1.21-.56 1.21-1.26s-.54-1.26-1.2-1.26c-.68 0-1.22.56-1.22 1.26s.54 1.26 1.21 1.26z"/>
  <path fill="#FAA973" d="M19.38 13.4c.67 0 1.21-.55 1.21-1.25 0-.69-.54-1.25-1.2-1.25-.67 0-1.21.56-1.21 1.25 0 .7.54 1.26 1.2 1.26z"/>
  <path fill="#FAAA74" d="M19.39 13.4c.66 0 1.2-.56 1.2-1.24 0-.7-.54-1.25-1.2-1.25-.66 0-1.2.56-1.2 1.25 0 .68.54 1.24 1.2 1.24z"/>
  <path fill="#FAAA75" d="M19.39 13.4c.65 0 1.18-.56 1.18-1.24 0-.68-.53-1.24-1.18-1.24-.66 0-1.19.56-1.19 1.24 0 .68.53 1.23 1.19 1.23z"/>
  <path fill="#FAAB76" d="M19.4 13.38a1.2 1.2 0 001.17-1.22 1.2 1.2 0 00-1.18-1.22 1.2 1.2 0 00-1.18 1.22c0 .68.53 1.22 1.18 1.22z"/>
  <path fill="#F9AC77" d="M19.4 13.38a1.2 1.2 0 001.16-1.22 1.2 1.2 0 00-1.17-1.21 1.2 1.2 0 00-1.16 1.21c0 .67.52 1.22 1.16 1.22z"/>
  <path fill="#F9AC78" d="M19.4 13.37c.63 0 1.15-.54 1.15-1.2 0-.67-.52-1.2-1.15-1.2-.64 0-1.16.53-1.16 1.2 0 .66.52 1.2 1.16 1.2z"/>
  <path fill="#F9AD79" d="M19.4 13.36c.63 0 1.15-.53 1.15-1.2 0-.65-.52-1.19-1.15-1.19-.64 0-1.15.54-1.15 1.2 0 .66.51 1.2 1.15 1.2z"/>
  <path fill="#F9AD7A" d="M19.4 13.36c.63 0 1.14-.53 1.14-1.19 0-.65-.51-1.18-1.14-1.18-.63 0-1.14.53-1.14 1.18 0 .66.51 1.19 1.14 1.19z"/>
  <path fill="#F9AE7B" d="M19.4 13.35c.63 0 1.13-.53 1.13-1.18 0-.64-.5-1.17-1.13-1.17-.62 0-1.13.53-1.13 1.17 0 .65.51 1.18 1.13 1.18z"/>
  <path fill="#F9AE7C" d="M19.4 13.34c.62 0 1.12-.52 1.12-1.16 0-.65-.5-1.17-1.11-1.17-.62 0-1.12.52-1.12 1.17 0 .64.5 1.16 1.12 1.16z"/>
  <path fill="#F9AF7D" d="M19.4 13.33c.62 0 1.12-.51 1.12-1.15 0-.64-.5-1.15-1.11-1.15-.61 0-1.11.51-1.11 1.15 0 .64.5 1.15 1.1 1.15z"/>
  <path fill="#F9B07E" d="M19.41 13.33c.61 0 1.1-.52 1.1-1.15 0-.63-.49-1.14-1.1-1.14-.6 0-1.1.51-1.1 1.14 0 .63.5 1.15 1.1 1.15z"/>
  <path fill="#F9B07F" d="M19.42 13.32c.6 0 1.08-.51 1.08-1.14 0-.62-.48-1.13-1.08-1.13-.6 0-1.1.5-1.1 1.13 0 .63.5 1.14 1.1 1.14z"/>
  <path fill="#F9B180" d="M19.42 13.31c.6 0 1.08-.5 1.08-1.12a1.1 1.1 0 00-1.08-1.13c-.6 0-1.08.5-1.08 1.13 0 .62.48 1.12 1.08 1.12z"/>
  <path fill="#F9B181" d="M19.42 13.3c.6 0 1.07-.5 1.07-1.1a1.1 1.1 0 00-1.07-1.12c-.6 0-1.07.5-1.07 1.11 0 .62.48 1.12 1.07 1.12z"/>
  <path fill="#F9B282" d="M19.42 13.3c.59 0 1.06-.5 1.06-1.1 0-.61-.47-1.1-1.06-1.1-.58 0-1.06.49-1.06 1.1 0 .6.48 1.1 1.06 1.1z"/>
  <path fill="#F8B283" d="M19.43 13.3c.58 0 1.05-.5 1.05-1.1 0-.6-.47-1.1-1.05-1.1-.58 0-1.06.5-1.06 1.1 0 .6.48 1.1 1.06 1.1z"/>
  <path fill="#F8B384" d="M19.43 13.28c.57 0 1.04-.48 1.04-1.08 0-.6-.47-1.08-1.04-1.08-.58 0-1.04.48-1.04 1.08 0 .6.46 1.08 1.04 1.08z"/>
  <path fill="#F8B485" d="M19.43 13.28c.57 0 1.03-.48 1.03-1.08 0-.59-.46-1.07-1.03-1.07-.57 0-1.03.48-1.03 1.07 0 .6.46 1.08 1.03 1.08z"/>
  <path fill="#F8B486" d="M19.43 13.27c.57 0 1.02-.48 1.02-1.06 0-.6-.45-1.07-1.02-1.07-.56 0-1.02.48-1.02 1.07 0 .58.46 1.06 1.02 1.06z"/>
  <path fill="#F8B587" d="M19.44 13.26c.56 0 1-.47 1-1.05 0-.58-.44-1.06-1-1.06s-1.02.48-1.02 1.06c0 .58.46 1.05 1.02 1.05z"/>
  <path fill="#F8B588" d="M19.44 13.25c.55 0 1-.46 1-1.04 0-.58-.45-1.04-1-1.04-.56 0-1 .46-1 1.04 0 .58.44 1.04 1 1.04z"/>
  <path fill="#F8B689" d="M19.44 13.25c.55 0 1-.47 1-1.04 0-.57-.45-1.03-1-1.03s-1 .46-1 1.03c0 .57.45 1.04 1 1.04z"/>
  <path fill="#F8B68A" d="M19.44 13.24a1 1 0 00.99-1.02 1 1 0 00-.99-1.03 1 1 0 00-.98 1.03 1 1 0 00.98 1.02z"/>
  <path fill="#F8B78B" d="M19.45 13.23a1 1 0 00.97-1.01 1 1 0 00-.97-1.01 1 1 0 00-.98 1 1 1 0 00.98 1.02z"/>
  <path fill="#F8B88C" d="M19.45 13.22c.53 0 .96-.45.96-1s-.43-1-.96-1a.98.98 0 00-.97 1c0 .55.44 1 .97 1z"/>
  <path fill="#F8B88D" d="M19.45 13.22c.53 0 .95-.45.95-1 0-.54-.42-.99-.95-.99a.97.97 0 00-.95 1c0 .54.42.99.95.99z"/>
  <path fill="#F8B98E" d="M19.45 13.21c.53 0 .95-.44.95-.98a.97.97 0 00-.95-.99.97.97 0 00-.94.99c0 .54.42.98.94.98z"/>
  <path fill="#F8B98F" d="M19.46 13.2c.51 0 .93-.43.93-.97a.96.96 0 00-.93-.98.96.96 0 00-.94.98c0 .54.42.97.94.97z"/>
  <path fill="#F7BA91" d="M19.46 13.2c.51 0 .92-.44.92-.97a.95.95 0 00-.92-.96.95.95 0 00-.93.96c0 .53.42.96.93.96z"/>
  <path fill="#F7BA92" d="M19.46 13.19c.5 0 .92-.43.92-.96a.94.94 0 00-.92-.95c-.5 0-.92.43-.92.95 0 .53.41.96.92.96z"/>
  <path fill="#F7BB93" d="M19.46 13.18c.5 0 .9-.42.9-.94s-.4-.95-.9-.95-.9.43-.9.95.4.94.9.94z"/>
  <path fill="#F7BB94" d="M19.47 13.17c.5 0 .9-.42.9-.93 0-.52-.4-.93-.9-.93s-.9.41-.9.93c0 .51.4.93.9.93z"/>
  <path fill="#F7BC95" d="M19.47 13.16a.9.9 0 00.89-.92.9.9 0 00-.89-.92.9.9 0 00-.88.92c0 .51.4.92.88.92z"/>
  <path fill="#F7BD96" d="M19.47 13.16a.9.9 0 00.88-.92.9.9 0 00-.88-.91.9.9 0 00-.88.91c0 .5.4.92.88.92z"/>
  <path fill="#F7BD97" d="M19.48 13.15c.48 0 .86-.4.86-.9s-.38-.9-.86-.9-.87.4-.87.9.39.9.87.9z"/>
  <path fill="#F7BE98" d="M19.48 13.15c.47 0 .86-.4.86-.9s-.39-.9-.86-.9c-.48 0-.86.4-.86.9s.38.9.86.9z"/>
  <path fill="#F7BE99" d="M19.48 13.14c.47 0 .85-.4.85-.89a.87.87 0 00-.85-.88c-.47 0-.85.4-.85.88 0 .5.38.89.85.89z"/>
  <path fill="#F7BF9A" d="M19.48 13.13c.47 0 .84-.4.84-.87a.86.86 0 00-.84-.88c-.46 0-.83.4-.83.88s.37.87.83.87z"/>
  <path fill="#F7BF9B" d="M19.49 13.12c.45 0 .82-.38.82-.86a.85.85 0 00-.82-.86.85.85 0 00-.83.86c0 .48.37.86.83.86z"/>
  <path fill="#F7C09C" d="M19.49 13.12c.45 0 .82-.39.82-.86a.84.84 0 00-.82-.85.84.84 0 00-.82.85c0 .47.37.86.82.86z"/>
  <path fill="#F7C19D" d="M19.5 13.1c.44 0 .8-.37.8-.83a.83.83 0 00-.8-.85.83.83 0 00-.82.85c0 .46.36.84.81.84z"/>
  <path fill="#F6C19E" d="M19.5 13.1c.44 0 .8-.37.8-.83a.82.82 0 00-.8-.84c-.45 0-.8.38-.8.84 0 .46.35.83.8.83z"/>
  <path fill="#F6C29F" d="M19.5 13.1a.8.8 0 00.79-.83.8.8 0 00-.8-.82.8.8 0 00-.78.82c0 .45.35.82.79.82z"/>
  <path fill="#F6C2A0" d="M19.5 13.09a.8.8 0 00.78-.82.8.8 0 00-.78-.8.8.8 0 00-.78.8c0 .45.35.82.78.82z"/>
  <path fill="#F6C3A1" d="M19.5 13.08c.43 0 .77-.36.77-.8 0-.45-.34-.8-.77-.8a.79.79 0 00-.77.8c0 .44.35.8.77.8z"/>
  <path fill="#F6C3A2" d="M19.5 13.07c.42 0 .76-.35.76-.8 0-.43-.34-.78-.76-.78a.78.78 0 00-.76.79c0 .44.34.79.76.79z"/>
  <path fill="#F6C4A3" d="M19.5 13.06c.42 0 .76-.35.76-.78a.77.77 0 00-.75-.78.77.77 0 00-.76.78c0 .43.34.78.76.78z"/>
  <path fill="#F6C5A4" d="M19.5 13.06c.42 0 .75-.35.75-.78a.76.76 0 00-.74-.77.76.76 0 00-.74.77c0 .43.33.78.74.78z"/>
  <path fill="#F6C5A5" d="M19.51 13.05c.4 0 .73-.34.73-.76a.75.75 0 00-.73-.77c-.4 0-.73.34-.73.77 0 .42.33.76.73.76z"/>
  <path fill="#F6C6A6" d="M19.51 13.04c.4 0 .73-.34.73-.75a.74.74 0 00-.73-.75c-.4 0-.72.33-.72.75 0 .41.32.75.72.75z"/>
  <path fill="#F6C6A7" d="M19.52 13.03c.39 0 .7-.33.7-.74a.73.73 0 00-.7-.74c-.4 0-.72.33-.72.74s.32.74.72.74z"/>
  <path fill="#F6C7A8" d="M19.52 13.03c.39 0 .7-.33.7-.74 0-.4-.31-.73-.7-.73-.39 0-.7.33-.7.73 0 .4.31.74.7.74z"/>
  <path fill="#F6C7A9" d="M19.52 13.02a.7.7 0 00.7-.72.7.7 0 00-.7-.72.7.7 0 00-.69.72c0 .4.31.72.7.72z"/>
  <path fill="#F5C8AA" d="M19.53 13.01a.7.7 0 00.68-.71.7.7 0 00-.68-.71.7.7 0 00-.69.7c0 .4.3.72.69.72z"/>
  <path fill="#F5C9AB" d="M19.53 13c.37 0 .67-.31.67-.7 0-.39-.3-.7-.67-.7a.69.69 0 00-.68.7c0 .39.3.7.68.7z"/>
  <path fill="#F5C9AC" d="M19.53 13c.37 0 .67-.31.67-.7 0-.38-.3-.69-.67-.69a.68.68 0 00-.66.7c0 .38.3.69.66.69z"/>
  <path fill="#F5CAAD" d="M19.53 13c.37 0 .66-.31.66-.7 0-.37-.3-.67-.66-.67-.36 0-.65.3-.65.68 0 .38.3.68.65.68z"/>
  <path fill="#F5CAAE" d="M19.54 12.98c.35 0 .64-.3.64-.67a.66.66 0 00-.64-.67c-.36 0-.65.3-.65.67 0 .37.29.67.65.67z"/>
  <path fill="#F5CBAF" d="M19.54 12.98c.35 0 .63-.3.63-.67a.65.65 0 00-.63-.66c-.35 0-.64.3-.64.66 0 .37.29.67.64.67z"/>
  <path fill="#F5CBB0" d="M19.54 12.97c.35 0 .63-.3.63-.65a.64.64 0 00-.63-.65c-.34 0-.62.29-.62.65 0 .36.28.65.62.65z"/>
  <path fill="#F5CCB1" d="M19.54 12.96c.34 0 .62-.28.62-.64a.63.63 0 00-.62-.64.63.63 0 00-.61.64c0 .36.27.64.61.64z"/>
  <path fill="#F5CDB2" d="M19.55 12.96c.33 0 .6-.29.6-.64a.62.62 0 00-.6-.63c-.34 0-.61.28-.61.63s.27.64.6.64z"/>
  <path fill="#F5CDB3" d="M19.55 12.95c.33 0 .6-.28.6-.62a.61.61 0 00-.6-.63c-.33 0-.6.28-.6.63 0 .34.27.62.6.62z"/>
  <path fill="#F5CEB4" d="M19.55 12.94a.6.6 0 00.59-.61.6.6 0 00-.59-.61.6.6 0 00-.59.6c0 .35.27.62.6.62z"/>
  <path fill="#F5CEB5" d="M19.55 12.93c.32 0 .58-.27.58-.6 0-.33-.26-.6-.58-.6a.59.59 0 00-.57.6c0 .33.25.6.57.6z"/>
  <path fill="#F5CFB6" d="M19.56 12.92c.31 0 .56-.26.56-.59 0-.32-.25-.59-.56-.59a.58.58 0 00-.57.6c0 .32.25.58.57.58z"/>
  <path fill="#F4CFB7" d="M19.56 12.92c.3 0 .56-.26.56-.58a.57.57 0 00-.56-.59c-.31 0-.56.26-.56.59 0 .32.25.58.56.58z"/>
  <path fill="#F4D0B8" d="M19.56 12.91c.3 0 .55-.26.55-.57a.56.56 0 00-.55-.57c-.3 0-.55.25-.55.57 0 .31.25.57.55.57z"/>
  <path fill="#F4D1B9" d="M19.56 12.9c.3 0 .54-.25.54-.56a.55.55 0 00-.54-.56c-.3 0-.54.25-.54.56 0 .31.25.56.54.56z"/>
  <path fill="#F4D1BA" d="M19.57 12.9c.29 0 .53-.25.53-.56 0-.3-.24-.55-.53-.55-.3 0-.53.25-.53.55 0 .3.23.56.53.56z"/>
  <path fill="#F4D2BB" d="M19.57 12.89c.29 0 .52-.24.52-.54 0-.3-.23-.55-.52-.55a.53.53 0 00-.52.55c0 .3.23.54.52.54z"/>
  <path fill="#F4D2BC" d="M19.57 12.88c.28 0 .51-.24.51-.53 0-.3-.23-.53-.5-.53a.52.52 0 00-.52.53c0 .3.23.53.51.53z"/>
  <path fill="#F4D3BD" d="M19.57 12.87c.28 0 .5-.23.5-.52a.51.51 0 00-.5-.52c-.27 0-.5.23-.5.52 0 .29.23.52.5.52z"/>
  <path fill="#F4D3BE" d="M19.58 12.87a.5.5 0 00.5-.52.5.5 0 00-.5-.5.5.5 0 00-.5.5c0 .29.23.52.5.52z"/>
  <path fill="#F4D4BF" d="M19.58 12.86a.5.5 0 00.48-.5.5.5 0 00-.48-.5.5.5 0 00-.48.5c0 .27.21.5.48.5z"/>
  <path fill="#F4D5C0" d="M19.58 12.85c.26 0 .48-.22.48-.5 0-.26-.22-.48-.48-.48a.48.48 0 00-.47.49c0 .27.21.5.47.5z"/>
  <path fill="#F4D5C1" d="M19.59 12.84c.25 0 .46-.21.46-.48 0-.26-.2-.48-.46-.48a.47.47 0 00-.47.48c0 .27.21.48.47.48z"/>
  <path fill="#F4D6C2" d="M19.59 12.84c.25 0 .45-.21.45-.47s-.2-.47-.45-.47a.46.46 0 00-.45.47c0 .26.2.47.45.47z"/>
  <path fill="#F4D6C3" d="M19.6 12.83c.24 0 .43-.2.43-.46s-.2-.46-.44-.46-.44.2-.44.46c0 .25.2.46.44.46z"/>
  <path fill="#F3D7C4" d="M19.6 12.82c.23 0 .43-.2.43-.45s-.2-.45-.44-.45-.43.2-.43.45.2.45.43.45z"/>
  <path fill="#F3D7C5" d="M19.6 12.82c.23 0 .42-.2.42-.45 0-.24-.19-.44-.42-.44-.24 0-.43.2-.43.44 0 .25.2.45.43.45z"/>
  <path fill="#F3D8C6" d="M19.6 12.8c.23 0 .41-.18.41-.42a.42.42 0 00-.41-.44c-.23 0-.42.2-.42.44s.19.43.42.43z"/>
  <path fill="#F3D9C7" d="M19.6 12.8c.22 0 .4-.19.4-.42a.41.41 0 00-.4-.42c-.22 0-.4.19-.4.42 0 .23.18.42.4.42z"/>
  <path fill="#F3D9C8" d="M19.6 12.8a.4.4 0 00.4-.42.4.4 0 00-.4-.4.4.4 0 00-.4.4c0 .23.19.41.4.41z"/>
  <path fill="#F3DAC9" d="M19.6 12.79a.4.4 0 00.4-.4.4.4 0 00-.4-.4.4.4 0 00-.38.4c0 .22.17.4.39.4z"/>
  <path fill="#F3DACA" d="M19.6 12.78c.22 0 .38-.18.38-.4 0-.2-.16-.38-.37-.38-.2 0-.38.17-.38.39 0 .21.17.39.38.39z"/>
  <path fill="#F3DBCB" d="M19.61 12.77c.2 0 .37-.17.37-.38a.37.37 0 00-.37-.38c-.2 0-.36.17-.36.38s.16.38.36.38z"/>
  <path fill="#F3DBCC" d="M19.61 12.77c.2 0 .36-.17.36-.38 0-.2-.16-.37-.36-.37-.2 0-.35.17-.35.37 0 .2.16.38.35.38z"/>
  <path fill="#F3DCCD" d="M19.62 12.76c.19 0 .34-.16.34-.36 0-.2-.15-.37-.34-.37-.2 0-.35.17-.35.37 0 .2.15.36.35.36z"/>
  <path fill="#F3DDCE" d="M19.62 12.75c.19 0 .34-.16.34-.35 0-.2-.15-.35-.34-.35a.34.34 0 00-.34.35c0 .2.15.35.34.35z"/>
  <path fill="#F3DDCF" d="M19.62 12.74c.18 0 .33-.15.33-.34a.33.33 0 00-.33-.34.33.33 0 00-.33.34c0 .19.15.34.33.34z"/>
  <path fill="#F3DED0" d="M19.62 12.73c.18 0 .32-.14.32-.33a.32.32 0 00-.32-.33.32.32 0 00-.31.33c0 .19.14.33.31.33z"/>
  <path fill="#F2DED1" d="M19.63 12.73c.17 0 .3-.15.3-.32a.31.31 0 00-.3-.32c-.17 0-.31.14-.31.32 0 .17.14.32.3.32z"/>
  <path fill="#F2DFD2" d="M19.63 12.72a.3.3 0 00.3-.31.3.3 0 00-.3-.31.3.3 0 00-.3.3c0 .18.13.32.3.32z"/>
  <path fill="#F2DFD3" d="M19.63 12.71a.3.3 0 00.3-.3.3.3 0 00-.3-.3.3.3 0 00-.29.3c0 .17.13.3.3.3z"/>
  <path fill="#F2E0D4" d="M19.64 12.7c.15 0 .28-.13.28-.29 0-.16-.13-.29-.28-.29a.29.29 0 00-.28.3c0 .15.12.29.28.29z"/>
  <path fill="#F2E1D5" d="M19.64 12.7c.15 0 .27-.13.27-.28a.28.28 0 00-.27-.29.28.28 0 00-.27.29c0 .15.12.28.27.28z"/>
  <path fill="#F2E1D6" d="M19.64 12.69c.14 0 .26-.12.26-.27a.27.27 0 00-.26-.27.27.27 0 00-.26.27c0 .15.12.27.26.27z"/>
  <path fill="#F2E2D7" d="M19.64 12.68c.14 0 .25-.11.25-.26a.26.26 0 00-.25-.26.26.26 0 00-.25.26c0 .15.12.26.25.26z"/>
  <path fill="#F2E2D8" d="M19.65 12.68c.13 0 .24-.12.24-.25 0-.14-.11-.25-.24-.25a.25.25 0 00-.24.25c0 .13.1.25.24.25z"/>
  <path fill="#F2E3D9" d="M19.65 12.67c.13 0 .23-.1.23-.24 0-.13-.1-.24-.23-.24s-.23.1-.23.24c0 .13.1.24.23.24z"/>
  <path fill="#F2E3DA" d="M19.65 12.66c.12 0 .22-.1.22-.23s-.1-.23-.22-.23-.22.1-.22.23.1.23.22.23z"/>
  <path fill="#F2E4DB" d="M19.65 12.66c.12 0 .22-.1.22-.23 0-.12-.1-.22-.22-.22-.11 0-.2.1-.2.22 0 .13.09.23.2.23z"/>
  <path fill="#F2E5DC" d="M19.66 12.65c.1 0 .2-.1.2-.21a.2.2 0 00-.2-.21.2.2 0 00-.2.2c0 .12.08.22.2.22z"/>
  <path fill="#F1E5DD" d="M19.66 12.64c.1 0 .2-.09.2-.2a.2.2 0 00-.2-.2.2.2 0 00-.2.2c0 .11.1.2.2.2z"/>
  <path fill="#F1E6DE" d="M19.66 12.63c.1 0 .18-.08.18-.19 0-.1-.08-.19-.18-.19-.1 0-.18.09-.18.2 0 .1.08.18.18.18z"/>
  <path fill="#F1E6DF" d="M19.66 12.62c.1 0 .18-.08.18-.18 0-.1-.08-.17-.18-.17-.1 0-.17.08-.17.17 0 .1.08.18.17.18z"/>
  <path fill="#F1E7E0" d="M19.67 12.62c.09 0 .16-.08.16-.17 0-.1-.07-.17-.16-.17-.1 0-.17.07-.17.17s.07.17.17.17z"/>
  <path fill="#F1E7E1" d="M19.67 12.61c.08 0 .15-.07.15-.16a.16.16 0 00-.15-.16.16.16 0 00-.16.16c0 .09.07.16.16.16z"/>
  <path fill="#F1E8E2" d="M19.67 12.6c.08 0 .15-.06.15-.15a.15.15 0 00-.15-.15.15.15 0 00-.14.15c0 .09.06.15.14.15z"/>
  <path fill="#F1E9E3" d="M19.67 12.6c.08 0 .14-.07.14-.14a.14.14 0 00-.14-.15.14.14 0 00-.13.15c0 .07.06.14.13.14z"/>
  <path fill="#F1E9E4" d="M19.68 12.59c.07 0 .12-.06.12-.13a.13.13 0 00-.12-.13.13.13 0 00-.13.13c0 .07.06.13.13.13z"/>
  <path fill="#F1EAE5" d="M19.68 12.58c.06 0 .11-.05.11-.12a.12.12 0 00-.11-.12.12.12 0 00-.12.12c0 .07.06.12.12.12z"/>
  <path fill="#F1EAE6" d="M19.68 12.57a.1.1 0 00.1-.1.1.1 0 00-.1-.12.1.1 0 00-.1.11c0 .06.04.11.1.11z"/>
  <path fill="#F1EBE7" d="M19.78 12.47a.1.1 0 00-.1-.1.1.1 0 00-.1.1c0 .05.05.1.1.1a.1.1 0 00.1-.1z"/>
  <path fill="#F1EBE8" d="M19.69 12.56c.04 0 .08-.04.08-.1 0-.04-.04-.08-.08-.08a.09.09 0 00-.1.09c0 .05.05.09.1.09z"/>
  <path fill="#F1ECE9" d="M19.7 12.55c.03 0 .07-.03.07-.08a.08.08 0 00-.08-.08.08.08 0 00-.08.08c0 .05.04.08.08.08z"/>
  <path fill="#F0EDEA" d="M19.7 12.54c.03 0 .06-.03.06-.07a.07.07 0 00-.07-.07.07.07 0 00-.06.07c0 .04.03.07.06.07z"/>
  <path fill="#F0EDEB" d="M19.7 12.54c.03 0 .05-.03.05-.06a.06.06 0 00-.05-.06.06.06 0 00-.06.06c0 .03.02.06.06.06z"/>
  <path fill="#F0EEEC" d="M19.7 12.53c.03 0 .05-.02.05-.05a.05.05 0 00-.05-.05.05.05 0 00-.05.05c0 .03.02.05.05.05z"/>
  <path fill="#F0EEED" d="M19.74 12.48a.04.04 0 00-.04-.04.04.04 0 00-.04.04c0 .02.02.04.04.04s.04-.02.04-.04z"/>
  <path fill="#F0EFEE" d="M19.73 12.49a.03.03 0 00-.03-.04.03.03 0 00-.03.03c0 .02.02.04.03.04.02 0 .03-.02.03-.03z"/>
  <path fill="#F0EFEF" d="M19.7 12.51c.02 0 .03 0 .03-.02l-.02-.02c-.01 0-.02 0-.02.02 0 .01 0 .02.02.02z"/>
  <path fill="#F0F0F0" d="M19.7 12.5h.02l-.01-.02-.01.01v.01z"/>
  <path fill="#000" d="M7.98 11.4c0 .4-.09.77-.27 1.1a2 2 0 01-1.35 1c-.25.06-.54.08-.88.08H4V9.2h1.53c.34 0 .64.03.89.09a1.95 1.95 0 011.31 1c.17.31.25.68.25 1.1zm-1.12-.01c0-.3-.05-.54-.15-.74a1.14 1.14 0 00-.82-.6 3.45 3.45 0 00-.52-.03h-.28v2.74h.27c.26 0 .45 0 .57-.03.12-.03.24-.07.35-.14.2-.12.35-.27.44-.47.1-.2.14-.44.14-.73zM9.8 9.8H8.74V9H9.8v.8zm-.02 3.78H8.75v-3.3h1.03v3.3zM13.5 12.54c0 .34-.15.61-.44.82-.3.2-.7.31-1.21.31a3.32 3.32 0 01-1.33-.26v-.87h.1l.17.12a2.25 2.25 0 001.07.3c.2 0 .35-.01.45-.06.1-.05.15-.12.15-.2 0-.09-.03-.15-.09-.18a1.07 1.07 0 00-.32-.1 7.43 7.43 0 00-.66-.14c-.3-.08-.5-.2-.65-.36a.93.93 0 01-.2-.62c0-.32.14-.59.43-.8.3-.2.69-.31 1.19-.31a3.07 3.07 0 011.2.23v.84h-.1a2.1 2.1 0 00-.5-.26c-.2-.07-.4-.1-.6-.1-.16 0-.3.02-.41.07-.11.04-.17.11-.17.2 0 .08.03.13.08.18.05.04.17.08.36.12.1.02.21.05.33.06l.36.08c.27.08.47.19.6.34.13.16.2.35.2.59zM15.83 13.67c-.27 0-.53-.03-.75-.1a1.65 1.65 0 01-.6-.32c-.17-.14-.3-.32-.4-.54-.09-.22-.13-.48-.13-.77a2 2 0 01.15-.8 1.49 1.49 0 011-.86 2.47 2.47 0 011.82.17v.9h-.15a5.78 5.78 0 00-.35-.25 1.2 1.2 0 00-.57-.16c-.28 0-.48.1-.63.27-.15.18-.22.43-.22.74s.07.56.22.72c.15.16.36.25.64.25a1.21 1.21 0 00.6-.16l.17-.12.14-.13h.14v.9a2.27 2.27 0 01-1.08.26zM24.68 10.28l-1.22 3.3H22.3l-1.21-3.3h1.07l.74 2.27.73-2.27h1.05zM28.38 12.13h-2.33c.01.26.1.46.28.6.18.13.44.2.78.2a1.9 1.9 0 001.1-.38h.11v.85a3.53 3.53 0 01-1.33.27c-.63 0-1.12-.14-1.46-.44-.34-.3-.51-.73-.51-1.28 0-.54.16-.98.48-1.3a1.8 1.8 0 011.33-.48c.51 0 .9.14 1.16.41.26.27.4.67.4 1.18v.37zm-1.01-.62c0-.23-.06-.4-.16-.5-.1-.12-.26-.17-.47-.17-.2 0-.36.05-.48.16-.13.1-.2.27-.22.5h1.33zM31.4 11.29h-.09a2.82 2.82 0 00-.83-.02l-.36.1v2.22H29.1v-3.31h1.02v.48c.23-.2.42-.33.59-.4a1.25 1.25 0 01.58-.1l.12.02v1.01zM31.61 9.38c.07 0 .13.02.19.06.06.03.11.08.14.14a.42.42 0 010 .4.38.38 0 01-.53.15.37.37 0 01-.13-.14.43.43 0 01-.06-.2c0-.07.02-.14.06-.2a.35.35 0 01.14-.15.4.4 0 01.19-.06zm0 .07a.32.32 0 00-.28.17.36.36 0 000 .34.32.32 0 00.28.17.32.32 0 00.28-.17.35.35 0 00-.12-.46.3.3 0 00-.16-.05zm-.17.56v-.43H31.68l.06.05.02.06c0 .03-.01.06-.03.08a.13.13 0 01-.09.04l.04.02.06.09.05.08h-.09l-.03-.06a.33.33 0 00-.07-.1c-.02-.02-.03-.02-.06-.02h-.04V10h-.06v.01zm.07-.24h.08c.04 0 .06 0 .08-.02a.07.07 0 00.02-.05l-.01-.04a.06.06 0 00-.03-.02.2.2 0 00-.07 0h-.08v.13z"/>
</svg>
