<?xml version="1.0" encoding="UTF-8"?>
<svg width="72px" height="30px" viewBox="0 0 72 30" version="1.1" xmlns="http://www.w3.org/2000/svg" xmlns:xlink="http://www.w3.org/1999/xlink">
    <!-- Generator: Sketch 52.6 (67491) - http://www.bohemiancoding.com/sketch -->
    <title>Group</title>
    <desc>Created with Sketch.</desc>
    <g id="Poubelle" stroke="none" stroke-width="1" fill="none" fill-rule="evenodd">
        <g id="Artboard" transform="translate(-546.000000, -210.000000)">
            <g id="Group" transform="translate(546.000000, 210.000000)">
                <path d="M3.58713583,21.2719277 C2.64036289,21.2719277 1.71257828,21.1576098 0.958092295,20.9635796 L1.07514699,18.9881948 C1.80896212,19.2562094 2.83289021,19.4683777 3.78014387,19.4683777 C5.2107589,19.4683777 6.37000894,18.8736382 6.37000894,17.4734229 C6.3702493,14.7472153 0.669421488,15.8999407 0.669421488,11.7148075 C0.669421488,9.48930757 2.42764543,7.9358728 5.46241446,7.9358728 C6.23492735,7.9358728 7.02714965,8.03062063 7.82009302,8.16474728 L7.70351905,10.0267688 C6.95071558,9.79693968 6.11931481,9.66233571 5.34656157,9.66233571 C3.72317886,9.66233571 2.89225881,10.4102946 2.89225881,11.4852171 C2.89225881,14.0758661 8.59356734,13.1174095 8.59356734,17.1648361 C8.59236555,19.5449874 6.69906001,21.2719277 3.58713583,21.2719277 Z M13.6742697,21.2129788 C13.133703,21.2129788 12.7277371,21.1948407 12.2249067,21.0986609 L12.2249067,25.2506204 L10.1575814,25.2506204 L10.1575814,11.5429727 L12.1092941,11.5429727 C12.1092941,12.0427257 12.0895847,12.810016 11.9929605,13.3271912 L12.0318986,13.3271912 C12.5727057,12.1176648 13.6742697,11.3503744 15.1431017,11.3503744 C17.4233848,11.3503744 18.679259,12.9613261 18.679259,15.8405145 C18.6794994,19.1998858 16.8830584,21.2129788 13.6742697,21.2129788 Z M14.6022947,13.0398451 C13.0558267,13.0398451 12.2246663,14.8436337 12.2246663,16.4727235 L12.2246663,19.4110995 C12.6698107,19.5452261 13.1524509,19.6029817 13.7321961,19.6029817 C15.3745672,19.6029817 16.4956002,18.6049076 16.4956002,16.0331127 C16.4958406,14.1145289 15.897107,13.0398451 14.6022947,13.0398451 Z M25.3107558,13.365138 C23.3979812,13.020275 22.4699562,14.3445967 22.4699562,17.2039763 L22.4699562,21.0793294 L20.4014292,21.0793294 L20.4014292,11.5429727 L22.3738127,11.5429727 C22.3738127,12.0790019 22.3146845,12.9250499 22.1793625,13.6536774 L22.2183006,13.6536774 C22.6439759,12.3677799 23.6099776,11.1771076 25.408101,11.3503744 L25.3107558,13.365138 Z M28.2633221,10.1231872 C27.5287859,10.1231872 26.9293313,9.54706317 26.9293313,8.83609648 C26.9293313,8.12703907 27.5287859,7.55091501 28.2633221,7.55091501 C28.9781489,7.55091501 29.5773632,8.10770765 29.5773632,8.83609648 C29.5773632,9.54706317 28.9781489,10.1231872 28.2633221,10.1231872 Z M29.2872502,21.0793294 L27.2201653,21.0793294 L27.2201653,11.5429727 L29.2872502,11.5429727 L29.2872502,21.0793294 Z M37.7925834,21.0793294 L37.7925834,14.9388589 C37.7925834,13.7498572 37.4623306,13.0594152 36.3622088,13.0594152 C34.9128458,13.0594152 33.8487778,14.5737098 33.8487778,16.4727235 L33.8487778,21.0795681 L31.7809718,21.0795681 L31.7809718,11.5429727 L33.7526343,11.5429727 C33.7526343,12.0427257 33.7136962,12.8665783 33.6173123,13.4035622 L33.6370217,13.4214617 C34.1970575,12.1945131 35.357269,11.3498971 36.9804114,11.3498971 C39.1638299,11.3498971 39.84068,12.7128816 39.84068,14.4016363 L39.84068,21.0790908 L37.7925834,21.0790908 L37.7925834,21.0793294 Z M45.5383831,21.251403 C43.4895655,21.251403 42.8704015,20.4652585 42.8704015,18.3364157 L42.8704015,13.1350703 L41.0355031,13.1350703 L41.0355031,11.5429727 L42.8704015,11.5429727 L42.8704015,8.51056491 L44.9189787,7.95377227 L44.9189787,11.5429727 L47.4504366,11.5429727 L47.4504366,13.1350703 L44.9391689,13.1350703 L44.9391689,17.7022974 C44.9391689,19.1232761 45.2288011,19.5060859 46.1948028,19.5060859 C46.6199973,19.5060859 47.0838896,19.4488077 47.4509174,19.3526279 L47.4509174,21.0413826 C46.8906412,21.1573711 46.1753337,21.251403 45.5383831,21.251403 Z" id="Shape" fill="#000000" fill-rule="nonzero"></path>
                <g id="Group-5" transform="translate(47.000000, 0.500000)" fill="#FFDD05">
                    <path d="M9.84413562,20.437846 C12.6611397,16.8374286 14.8767662,12.607666 14.8767662,9.57000777 C14.8767662,7.9824447 13.731457,6.87434858 12.2381083,6.03235783 C12.2676725,9.33325754 11.1161139,17.0734628 9.84413562,20.437846 M0.606429437,29.309536 C7.20908312,27.1167324 16.7801668,22.0070323 23.4369012,17.4421918 C23.9954949,17.0603366 24.4307845,16.7059272 24.4307845,16.0854125 C24.4307845,15.0069101 22.4418162,13.5613495 21.4762953,12.9859414 C16.2383983,18.3922953 5.81380083,26.4931151 0.606429437,29.309536" id="Shape" fill-rule="nonzero"></path>
                    <path d="M6.73100965,24.7172497 C10.8022054,21.9227855 16.7167121,16.6651164 18.7184194,13.8040662 C19.1902436,13.1310464 19.5394848,12.7410767 19.5394848,12.0367925 C19.5394848,10.8819191 18.1829002,10.0363485 17.2072843,9.44757544 C14.8693151,14.9186061 9.61699665,21.7311419 6.73100965,24.7172497 M10.4402252,16.9655887 C10.9668511,13.510515 10.6572691,9.33994 9.98498583,6.72399309 C9.61940023,5.29943446 8.32627039,3.69158533 7.12952439,3.1889684 C8.69810531,7.60941988 10.0445948,13.9043032 10.4402252,16.9655887" id="Shape" fill-rule="nonzero"></path>
                    <path d="M9.28049446,12.1188914 C8.04697357,8.80892259 4.97302607,1.90879878 0.451157713,0.199280693 C3.3948308,3.42500266 7.7621485,9.82608943 9.28049446,12.1188914" id="Path"></path>
                </g>
            </g>
        </g>
    </g>
</svg>