<?xml version="1.0" encoding="UTF-8"?>
<svg width="73px" height="16px" viewBox="0 0 73 16" version="1.1" xmlns="http://www.w3.org/2000/svg" xmlns:xlink="http://www.w3.org/1999/xlink">
    <!-- Generator: Sketch 52.6 (67491) - http://www.bohemiancoding.com/sketch -->
    <title>Group 2</title>
    <desc>Created with Sketch.</desc>
    <g id="Poubelle" stroke="none" stroke-width="1" fill="none" fill-rule="evenodd">
        <g id="Artboard" transform="translate(-383.000000, -218.000000)" fill="#E6007E">
            <g id="Group-2" transform="translate(383.000000, 218.000000)">
                <polygon id="Shape" fill-rule="nonzero" points="0.984160685 7.20265675 3.96743449 7.20265675 3.96743449 10.1650225 0.984160685 10.1650225"></polygon>
                <path d="M8.0875775,11.9550695 C8.0875775,12.8950352 8.22702905,13.5045754 8.50318345,13.7856918 C8.73865685,14.025141 9.1377705,14.1719766 9.6981422,14.2283818 C9.86434794,14.2425741 10.1478322,14.2487604 10.5485951,14.2487604 L10.5485951,15.0713669 L3.36271683,15.0713669 L3.36271683,14.2487604 C3.93921433,14.2487604 4.36654815,14.2205578 4.64087007,14.166336 C5.19776006,14.0493407 5.54904605,13.7278309 5.69362854,13.1994414 C5.7674774,12.9250573 5.80669242,12.5107519 5.80669242,11.9552514 L5.80669242,1.19386326 C4.58626223,1.22861615 3.6330073,1.62963907 2.9441789,2.39747787 C2.29016759,3.13147354 1.89160367,4.25703061 1.74757092,5.77269345 L0.968767872,5.64059607 L1.11390011,0.494256581 L12.7979616,0.494256581 L12.9430938,5.64059607 L12.16594,5.77269345 C12.0208078,4.25703061 11.6198616,3.13147354 10.9631016,2.39747787 C10.2706083,1.62945712 9.31313863,1.22861615 8.08812724,1.19386326 L8.08812724,11.9550695 L8.0875775,11.9550695 Z" id="Path"></path>
                <path d="M9.98620771,7.20265675 L12.9689318,7.20265675 L12.9689318,10.1650225 L9.98620771,10.1650225 L9.98620771,7.20265675 Z M21.8237468,15.0713669 L21.1717513,15.0713669 L17.4422925,2.30468219 L17.4422925,11.510378 C17.4422925,12.4312387 17.4772928,13.0231296 17.546194,13.2911454 C17.7527142,14.0249591 18.2403366,14.3910472 19.0057625,14.3910472 L19.2859484,14.3910472 L19.2859484,15.0711849 L14.9039443,15.0711849 L14.9039443,14.3910472 L15.2451517,14.3910472 C15.5698667,14.3910472 15.8560997,14.2829675 16.1064162,14.0626232 C16.3396906,13.8566532 16.4921528,13.5455147 16.5616037,13.1262966 C16.6088816,12.811701 16.6338033,12.2722124 16.6338033,11.5098321 L16.6338033,3.37437989 C16.6338033,2.88838524 16.6132796,2.56942282 16.5722321,2.41803849 C16.4886711,2.0825184 16.3046903,1.87018004 16.022672,1.77920388 C15.8560997,1.72516404 15.6143959,1.69732534 15.2966443,1.69732534 L14.9037611,1.69732534 L14.9037611,1.0288325 L19.005396,1.0288325 L22.0315498,11.3589937 L25.1194581,1.0288325 L29.2551772,1.0288325 L29.2551772,1.69732534 L28.9649127,1.69732534 C28.4318449,1.69732534 28.0585692,1.8081343 27.8445358,2.0275688 C27.700503,2.16585257 27.6125441,2.35599274 27.5854234,2.60235619 C27.5447424,2.9125849 27.5222029,3.30305458 27.5222029,3.77649452 L27.5222029,12.3238868 C27.5222029,13.036958 27.5601352,13.5114896 27.6363663,13.7451164 C27.7899279,14.1765254 28.2326546,14.391593 28.9649127,14.391593 L29.2551772,14.391593 L29.2551772,15.0717308 L23.9369602,15.0717308 L23.9369602,14.391593 L24.1141608,14.391593 C24.6452129,14.391593 25.021054,14.2867885 25.2429671,14.0742682 C25.3886491,13.9356205 25.4745923,13.7416593 25.501713,13.487108 C25.5442264,13.1861589 25.5636507,12.7987824 25.5636507,12.3238868 L25.5636507,2.30468219 L21.8237468,15.0713669 Z M33.7748003,5.08036487 C35.0982158,5.08036487 36.170032,5.59820117 36.993914,6.63369184 C37.7131615,7.53981441 38.0741597,8.73123821 38.0741597,10.2063257 C38.0741597,11.7019738 37.7133448,12.9064982 36.993914,13.8204447 C36.1768122,14.8555714 35.0831895,15.3737716 33.7137788,15.3737716 C32.419683,15.3737716 31.3628931,14.8555714 30.5459745,13.8204447 C29.8265437,12.9064982 29.4673781,11.7096158 29.4673781,10.2265224 C29.4673781,8.73706069 29.8265437,7.53981441 30.5459745,6.63369184 C31.3707728,5.59838313 32.4466204,5.08036487 33.7748003,5.08036487 Z M33.7748003,5.75759141 C33.2913927,5.75759141 32.8583782,5.95391797 32.4781391,6.34384179 C31.847217,6.98886277 31.5333135,8.24979237 31.5333135,10.1240832 C31.5333135,11.6755907 31.7270064,12.8500929 32.1143922,13.6455885 C32.4605473,14.345741 33.0139556,14.6963631 33.7749836,14.6963631 C35.2635053,14.6963631 36.008041,13.1919813 36.008041,10.1844914 C36.008041,8.79856057 35.8455002,7.74560248 35.5185862,7.02507129 C35.3192126,6.57765053 35.0254664,6.23576211 34.6382639,5.99394748 C34.3778587,5.83770418 34.0790515,5.75591162 33.7748003,5.75759141 Z M41.6079098,6.75050523 C41.7885921,6.34384179 42.0196675,6.02797256 42.3031519,5.79889459 C42.826141,5.37858472 43.4345236,5.16824784 44.1246348,5.16824784 C45.1473406,5.16824784 45.9858824,5.52851344 46.6420927,6.24940854 C47.4912629,7.18919228 47.9141988,8.45467068 47.9141988,10.0471174 C47.9141988,11.5627803 47.5359754,12.8331714 46.7758636,13.8546517 C46.0633962,14.807718 45.1264503,15.2849789 43.9674082,15.2849789 C43.3383185,15.2849789 42.7627373,15.116855 42.2364497,14.7815168 C42.1270507,14.7131028 41.8921271,14.5313324 41.531862,14.2365696 C41.3946094,14.1264885 41.2732994,14.0728125 41.1699476,14.0728125 C41.0451559,14.0728125 40.906987,14.1827117 40.7550746,14.4012365 C40.5995927,14.6200157 40.4510285,14.8435621 40.3095993,15.0715488 L39.6037289,15.0715488 C39.6731798,14.8715832 39.7098293,14.7520406 39.7178922,14.7105554 C39.77983,14.4301669 39.8098826,13.8582908 39.8098826,12.9940172 L39.8098826,3.35600271 C39.8098826,2.59526005 39.7246724,2.12127425 39.5522362,1.93677459 C39.4060045,1.76482965 39.1338816,1.67858425 38.7329354,1.67858425 L38.5773581,1.67858425 L38.5773581,1.03047008 L41.6066271,0.886545788 L41.6066271,6.75050523 L41.6079098,6.75050523 Z M43.8411504,5.91789141 C43.3779001,5.91789141 42.946718,6.09602273 42.5470546,6.45192147 C41.8016027,7.13114949 41.4288767,8.35532472 41.4288767,10.1280862 C41.4288767,11.498915 41.6051611,12.5567858 41.9562638,13.3037001 C42.1431765,13.70072 42.4116345,14.0162254 42.7638368,14.2485785 C43.0535515,14.4396284 43.3817483,14.5349714 43.7482438,14.5349714 C45.1493563,14.5349714 45.8482633,13.0533337 45.8482633,10.0876928 C45.8482633,8.73178407 45.6736282,7.68501236 45.3208762,6.94501226 C44.9897475,6.25977982 44.4977272,5.91789141 43.8411504,5.91789141 Z M51.8455966,5.23647996 L51.8455966,12.7152663 C51.8455966,13.4900193 51.933189,13.9740124 52.1063582,14.1652443 C52.2503909,14.3364615 52.5226971,14.4225249 52.9247427,14.4225249 L53.2657668,14.4225249 L53.2657668,15.0713669 L48.6297813,15.0713669 L48.6297813,14.4225249 L48.9720882,14.4225249 C49.3723013,14.4225249 49.6446075,14.3364615 49.7908393,14.1652443 C49.9636419,13.9672802 50.0494019,13.483469 50.0494019,12.7152663 L50.0494019,7.71594425 C50.0494019,6.95447379 49.9636419,6.47812261 49.7908393,6.28598095 C49.6446075,6.12113215 49.3723013,6.03852579 48.9720882,6.03852579 L48.7327666,6.03852579 L48.7327666,5.38076815 L51.8455966,5.23647996 Z M50.798702,0.922390396 C51.1080243,0.922390396 51.3735503,1.0361106 51.5943639,1.26154952 C51.8219576,1.48844407 51.9370372,1.75809741 51.9370372,2.07287493 C51.9370372,2.38874416 51.8270885,2.65857946 51.6046257,2.8851101 C51.3768488,3.11127683 51.1025268,3.22335946 50.777262,3.22335946 C50.4523637,3.22335946 50.1809738,3.11109488 49.9601602,2.8851101 C49.7325665,2.65857946 49.6173036,2.38856221 49.6173036,2.07287493 C49.6173036,1.74445099 49.7342157,1.47006689 49.9698723,1.25190605 C50.1970996,1.03247155 50.4736205,0.922390396 50.798702,0.922390396 Z M57.2160392,0.88272479 L57.2160392,12.7139926 C57.2160392,13.483287 57.3017991,13.9660065 57.4758845,14.1650624 C57.6288964,14.3362795 57.8999199,14.422343 58.2946356,14.422343 L58.6367592,14.422343 L58.6367592,15.0704571 L53.9996742,15.0704571 L53.9996742,14.422343 L54.3439968,14.422343 C54.7427439,14.422343 55.0154166,14.3362795 55.1599991,14.1650624 C55.3324353,13.9660065 55.4198445,13.483287 55.4198445,12.7139926 L55.4198445,3.36182518 C55.4198445,2.60126447 55.3324353,2.12436744 55.1599991,1.93186188 C55.0154166,1.76100865 54.7427439,1.6749452 54.3439968,1.6749452 L54.1046752,1.6749452 L54.1046752,1.02664908 L57.2160392,0.88272479 Z M67.0646909,10.1650225 L61.2608673,10.1650225 C61.2676475,11.5225688 61.4096645,12.5247622 61.6856357,13.1765154 C62.0730215,14.0948288 62.7365617,14.5524389 63.6751568,14.5524389 C64.4077814,14.5524389 65.019096,14.2647722 65.5096503,13.6878014 C65.7777418,13.3739337 66.0482155,12.9372481 66.3164902,12.3813838 L66.9499778,12.7105355 C66.0560951,14.4874819 64.8552725,15.3737716 63.3383474,15.3737716 C62.2265831,15.3737716 61.3129097,14.9964025 60.6015418,14.2418462 C59.7138896,13.3015166 59.2722625,11.9428787 59.2722625,10.1650225 C59.2722625,8.53127261 59.7138896,7.22540079 60.6015418,6.2426763 C61.3002656,5.46792331 62.1389907,5.07854534 63.1217485,5.07854534 C64.5807673,5.07854534 65.6775052,5.80890196 66.4088471,7.26652202 C66.8052121,8.04345843 67.0216277,9.00889746 67.0646909,10.1650225 Z M65.1050392,9.41519699 C65.1050392,8.55911132 65.0113996,7.85368216 64.8248533,7.29818172 C64.4884104,6.31873237 63.9553426,5.82909867 63.2291317,5.82909867 C62.4136791,5.82909867 61.8379146,6.43154281 61.5012884,7.63861452 C61.3631196,8.12369941 61.2889042,8.71559031 61.2832236,9.41519699 L65.1050392,9.41519699 Z M69.6213639,7.20265675 L72.604088,7.20265675 L72.604088,10.1650225 L69.6213639,10.1650225 L69.6213639,7.20265675 Z" id="Shape" fill-rule="nonzero"></path>
            </g>
        </g>
    </g>
</svg>