<?xml version="1.0" encoding="UTF-8"?>
<svg width="72px" height="15px" viewBox="0 0 72 15" version="1.1" xmlns="http://www.w3.org/2000/svg" xmlns:xlink="http://www.w3.org/1999/xlink">
    <!-- Generator: Sketch 52.6 (67491) - http://www.bohemiancoding.com/sketch -->
    <title>Group 3</title>
    <desc>Created with Sketch.</desc>
    <g id="Poubelle" stroke="none" stroke-width="1" fill="none" fill-rule="evenodd">
        <g id="Artboard" transform="translate(-467.000000, -218.000000)">
            <g id="Group-3" transform="translate(467.000000, 218.000000)">
                <path d="M69.8378951,0.0235341074 C70.3814934,-0.00487407323 70.9250918,-0.00487407323 71.4686901,0.00933001708 C69.8378951,3.38990351 68.2643209,6.79888519 66.6764415,10.1936628 L65.3460561,10.1936628 C64.6164898,8.48917193 63.7581767,6.82729337 63,5.12280253 C63.5292931,5.10859844 64.0585863,5.10859844 64.5878794,5.12280253 C65.0456464,6.17390521 65.5892448,7.18239562 66.0040962,8.23349831 C67.2772607,5.49210888 68.593341,2.76492354 69.8378951,0.0235341074 Z" id="Path" fill="#FF0000"></path>
                <path d="M28.2385039,2.5231533e-16 C29.282785,0.0142040903 30.3413712,0.0142040903 31.3856523,0 C31.3713471,0.92326587 31.3713471,1.86073583 31.3856523,2.7840017 C30.3413712,2.76979761 29.282785,2.7840017 28.2241987,2.76979761 C28.2528091,1.84653174 28.2241987,0.92326587 28.2385039,2.5231533e-16 Z M12.4026256,3.97714529 C14.5484086,2.76979761 17.6669465,3.18171623 19.1117737,5.26971751 C19.9986973,6.50547336 20.2561913,8.0679233 20.241886,9.54514869 C17.7813882,9.55935278 15.3208904,9.54514869 12.8603926,9.55935278 C12.9748344,10.3121696 13.3038544,11.1075986 14.0048102,11.5053132 C15.0061756,12.0876809 16.5797498,11.9172318 17.0804325,10.7667005 C18.0961031,10.7382923 19.0974685,10.7382923 20.1131391,10.7667005 C19.7984242,11.9172318 18.9544163,12.897314 17.89583,13.4370694 C16.7514124,14.0620494 15.3781113,14.1756821 14.1049467,13.9626208 C12.7602561,13.7495594 11.515702,12.9967426 10.7575253,11.8746195 C9.92782256,10.6814759 9.71324426,9.16163825 9.89921212,7.75543331 C10.08518,6.20718747 11.0150193,4.74416616 12.4026256,3.97714529 Z M14.0763363,5.75265658 C13.3753805,6.07935065 13.0320553,6.83216744 12.8746978,7.55657605 L17.0804325,7.55657605 C16.9946011,7.00261652 16.7943281,6.42024882 16.3651715,6.03673838 C15.7643522,5.45437068 14.8059025,5.44016659 14.0763363,5.75265658 Z M45.3904625,3.43738986 C47.0784784,3.13910396 48.9524622,3.49420622 50.2542372,4.65894162 C52.4715463,6.61910609 52.5716828,10.4115982 50.5117312,12.5138036 C48.8809361,14.2040903 46.1486391,14.5165803 44.0600771,13.5649062 C42.4435872,12.8404976 41.3420853,11.2070273 41.1561174,9.47412824 C41.0845913,8.46563783 41.127507,7.42873923 41.5423584,6.49126927 C42.171788,4.88620707 43.7024466,3.72147166 45.3904625,3.43738986 Z M45.748093,5.75265658 C44.8611694,6.06514656 44.446318,7.01682061 44.317571,7.88327012 C44.2174345,8.96278099 44.2317397,10.1843328 44.9326955,11.0791904 C45.6908721,12.0592727 47.3645828,12.0308645 48.1227595,11.0649864 C48.7521892,10.2837614 48.8523257,9.21845461 48.7807996,8.25257647 C48.7378839,7.40033105 48.4374743,6.49126927 47.7222133,5.96571793 C47.1500045,5.58220749 46.3918279,5.52539113 45.748093,5.75265658 Z M56.6200601,4.01975756 C57.6643411,3.21012441 59.152084,3.12489987 60.3537224,3.60783894 C61.2120356,3.97714529 61.8557705,4.72996207 62.1561801,5.59641158 C62.4995054,6.49126927 62.3993689,7.45714741 62.3993689,8.39461737 C62.3993689,10.1843328 62.3850636,11.9740481 62.4136741,13.7495594 C61.369393,13.7637635 60.325112,13.7495594 59.2665257,13.7637635 L59.2665257,7.6275965 C59.2665257,7.10204516 59.0662526,6.53388154 58.6227908,6.20718747 C57.9504455,5.75265658 56.9776905,5.83788112 56.4054818,6.40604473 C55.9477147,6.86057562 55.7474416,7.51396377 55.7617469,8.13894375 L55.7617469,13.7637635 C54.731771,13.7495594 53.68749,13.7637635 52.6575142,13.7495594 C52.6575142,10.3689859 52.6718194,6.98841243 52.6575142,3.60783894 C53.6731848,3.62204303 54.6745502,3.59363485 55.6902208,3.62204303 C55.6759155,4.09077801 55.6759155,4.55951299 55.6616103,5.02824797 C55.9763252,4.6873498 56.2338191,4.30383936 56.6200601,4.01975756 Z M0,3.63624712 L3.26159012,3.63624712 C3.91963023,5.80947294 4.620586,7.98269876 5.23571045,10.1701287 C5.99388711,8.02531103 6.5660959,5.80947294 7.28135689,3.63624712 C8.32563794,3.62204303 9.3842242,3.63624712 10.4285052,3.62204303 C9.22686678,7.00261652 8.05383876,10.38319 6.86650551,13.7637635 C5.77930881,13.7637635 4.6921121,13.7495594 3.6049154,13.7779676 C2.36036127,10.4115982 1.25885934,6.98841243 0,3.63624712 Z M20.957147,3.62204303 L23.9612432,3.62204303 C23.946938,4.19020664 23.9612432,4.75837025 23.9326328,5.32653387 C24.1901267,5.04245206 24.3760946,4.6873498 24.6478938,4.41747209 C25.3202391,3.67885939 26.421741,3.38057349 27.394496,3.63624712 C27.3801907,4.53110481 27.3801907,5.4259625 27.394496,6.3066161 C26.6220141,6.22139156 25.7637009,6.24979974 25.1056608,6.71853472 C24.404705,7.20147379 24.0899902,8.09633148 24.1042954,8.92016872 C24.0899902,10.539435 24.1042954,12.1444972 24.1042954,13.7637635 C23.0600144,13.7637635 22.0014281,13.7495594 20.957147,13.7779676 C20.9714523,10.38319 20.9714523,7.00261652 20.957147,3.62204303 Z M28.2385039,3.63624712 C29.2970902,3.62204303 30.3413712,3.63624712 31.3999575,3.62204303 C31.3856523,7.00261652 31.3999575,10.38319 31.3999575,13.7637635 C30.3556765,13.7495594 29.2970902,13.7637635 28.2385039,13.7637635 L28.2385039,3.63624712 Z M32.2439655,3.62204303 C35.0907042,3.63624712 37.937443,3.62204303 40.7698765,3.63624712 C40.7412661,4.41747209 40.7698765,5.18449296 40.7555713,5.96571793 C40.6554347,6.1645752 40.4837721,6.3066161 40.3550251,6.47706518 C38.8958927,8.08212739 37.4653707,9.72980186 35.9776279,11.32066 C37.6513386,11.3490682 39.3250493,11.32066 40.99876,11.3348641 L40.99876,13.7779676 C38.0804952,13.7637635 35.1622303,13.7637635 32.2439655,13.7779676 L32.2439655,11.4200886 C33.774624,9.71559777 35.2909773,8.02531103 36.835941,6.33502428 C36.8788567,6.24979974 37.0648246,6.1645752 36.964688,6.05094247 C35.3911138,6.09355474 33.8175397,6.05094247 32.2439655,6.07935065 L32.2439655,3.62204303 Z" id="Shape" fill="#000000" fill-rule="nonzero"></path>
            </g>
        </g>
    </g>
</svg>