<svg xmlns="http://www.w3.org/2000/svg" id="Group_13351" width="120" height="120" viewBox="0 0 120 120">
    <defs>
        <style>
            .cls-1{fill:#7f5eff}
        </style>
    </defs>
    <g id="Group_13309" transform="translate(7.876 11.411)">
        <g id="Group_13278" transform="translate(20.065 34.098)">
            <path id="Path_28591" d="M25.833 27.816V33.7H14.9v-9.428z" class="cls-1" transform="translate(-14.902 -24.272)"/>
        </g>
        <g id="Group_13279" transform="translate(36.993 1.493)">
            <path id="Path_28592" d="M47.217 18.545a11.621 11.621 0 0 1-8.606 11.231v-9.319a1.908 1.908 0 0 0-1.911-1.912H23.93a11.644 11.644 0 1 1 23.287 0z" class="cls-1" transform="translate(-23.93 -6.882)"/>
        </g>
        <g id="Group_13280" transform="translate(61.355 83.248)">
            <path id="Path_28593" d="M49.358 64.422a12.45 12.45 0 0 1-12.435-12.437 1.5 1.5 0 1 1 3 0 9.438 9.438 0 0 0 18.876 0 1.5 1.5 0 1 1 3 0 12.451 12.451 0 0 1-12.441 12.437z" transform="translate(-36.923 -50.485)"/>
        </g>
        <g id="Group_13281" transform="translate(84.895 62.636)">
            <path id="Path_28594" d="M52.472 58.287a1.493 1.493 0 0 1-1.5-1.491 1.675 1.675 0 0 1 .069-.472A18.925 18.925 0 0 0 49.658 41.7a1.5 1.5 0 1 1 2.642-1.42 21.931 21.931 0 0 1 1.618 16.907 1.507 1.507 0 0 1-1.446 1.1z" transform="translate(-49.478 -39.492)"/>
        </g>
        <g id="Group_13282" transform="translate(3.562 80.736)">
            <path id="Path_28595" d="M18.537 65.594A12.452 12.452 0 0 1 6.1 53.157a11.476 11.476 0 0 1 .354-2.889 1.5 1.5 0 0 1 2.9.759 8.33 8.33 0 0 0-.259 2.13 9.429 9.429 0 0 0 18.608 2.168 1.5 1.5 0 1 1 2.921.682 12.367 12.367 0 0 1-12.087 9.587z" transform="translate(-6.1 -49.145)"/>
        </g>
        <g id="Group_13283" transform="translate(35.139 47.978)">
            <path id="Path_28596" d="M36.216 63.485H24.441a1.5 1.5 0 0 1-1.5-1.5v-1.558a7.068 7.068 0 0 1 5.565-6.9v-10.4a11.47 11.47 0 0 1 11.458-11.453H54.9a1.5 1.5 0 0 1 1.5 1.5v3.081a7.643 7.643 0 0 1-7.635 7.633h-7.38a.413.413 0 0 0-.411.411v14.43a4.761 4.761 0 0 1-4.758 4.756zm-10.275-3h10.275a1.76 1.76 0 0 0 1.759-1.757V44.3a3.411 3.411 0 0 1 3.409-3.409h7.38a4.64 4.64 0 0 0 4.636-4.636v-1.583H39.964a8.469 8.469 0 0 0-8.458 8.46v11.739a1.5 1.5 0 0 1-1.5 1.5H30a4.062 4.062 0 0 0-4.056 4.056zm4.065-5.614z" transform="translate(-22.941 -31.674)"/>
        </g>
        <g id="Group_13284" transform="translate(0 68.346)">
            <path id="Path_28597" d="M34.7 63.869a1.566 1.566 0 0 1-.347-.041l-29-6.859a1.487 1.487 0 0 1-.932-.671 1.5 1.5 0 0 1-.182-1.134 16.476 16.476 0 0 1 14.976-12.588 1.481 1.481 0 0 1 1.183.476l13.417 14.389h1.2a1.473 1.473 0 0 1 .182 0h26.46a16.4 16.4 0 0 1 32.737 1.5 1.5 1.5 0 0 1-1.5 1.5H36.535a15.6 15.6 0 0 1-.377 2.284 1.5 1.5 0 0 1-1.458 1.144zm-1.642-3.431l.448.107.011-.1h-.358c-.03-.004-.066-.006-.097-.007zM7.59 54.415l25 5.91a1.481 1.481 0 0 1-.519-.36L18.7 45.631a13.476 13.476 0 0 0-11.11 8.784zm57.082 3.026H91.31a13.4 13.4 0 0 0-26.638 0z" transform="translate(-4.2 -42.537)"/>
        </g>
        <g id="Group_13285" transform="translate(29.508 29.138)">
            <path id="Path_28598" d="M36.751 37.52H24.384a4.445 4.445 0 1 1 0-8.889h8.737l6.536-5.854a1.273 1.273 0 0 1 .107-.088 5.433 5.433 0 0 1 7.59 1.131 5.429 5.429 0 0 1-1.129 7.592l-8.632 5.85a1.5 1.5 0 0 1-.842.258zm-12.367-5.891a1.446 1.446 0 1 0 0 2.891h11.908l8.2-5.556a2.38 2.38 0 0 0 .906-1.556 2.427 2.427 0 0 0-3.798-2.343l-6.908 6.184a1.492 1.492 0 0 1-1 .381z" transform="translate(-19.938 -21.626)"/>
        </g>
        <g id="Group_13286" transform="translate(18.564 32.591)">
            <path id="Path_28599" d="M33.715 35.909H15.6a1.5 1.5 0 0 1-1.5-1.5v-9.441a1.5 1.5 0 0 1 1.963-1.427l10.719 3.478h6.932a1.5 1.5 0 0 1 1.5 1.5v5.889a1.5 1.5 0 0 1-1.499 1.501zm-16.614-3h15.116v-2.892h-5.672a1.5 1.5 0 0 1-.463-.073L17.1 27.031z" transform="translate(-14.101 -23.468)"/>
        </g>
        <g id="Group_13287" transform="translate(13.6 42.029)">
            <path id="Path_28600" d="M12.954 57.856a1.451 1.451 0 0 1-.416-.06 1.5 1.5 0 0 1-1.026-1.856l7.6-26.351a1.5 1.5 0 0 1 2.882.831l-7.6 26.353a1.5 1.5 0 0 1-1.44 1.083z" transform="translate(-11.454 -28.502)"/>
        </g>
        <g id="Group_13288" transform="translate(27.258 42.025)">
            <path id="Path_28601" d="M24.834 72.722a1.5 1.5 0 0 1-1.389-.937 64.234 64.234 0 0 1-4.706-24.259 65.124 65.124 0 0 1 2.509-17.938 1.5 1.5 0 0 1 2.886.825 62.073 62.073 0 0 0-2.394 17.113 61.226 61.226 0 0 0 4.485 23.132 1.5 1.5 0 0 1-1.389 2.064z" transform="translate(-18.738 -28.499)"/>
        </g>
        <g id="Group_13289" transform="translate(46.353 40.99)">
            <path id="Path_28602" d="M32.282 38.267a1.5 1.5 0 0 1-1.416-1 43.992 43.992 0 0 1-1.926-7.577 1.5 1.5 0 0 1 2.964-.473A40.889 40.889 0 0 0 33.7 36.27a1.5 1.5 0 0 1-1.416 2z" transform="translate(-28.922 -27.947)"/>
        </g>
        <g id="Group_13290" transform="translate(35.495)">
            <path id="Path_28603" d="M36.275 32.377a1.533 1.533 0 0 1-1.537-1.5 1.469 1.469 0 0 1 1.462-1.5h.075a9.719 9.719 0 0 0 2.625-.347 10.145 10.145 0 1 0-12.769-9.8 1.5 1.5 0 1 1-3 0 13.146 13.146 0 1 1 16.558 12.695 12.747 12.747 0 0 1-3.414.452z" transform="translate(-23.131 -6.086)"/>
        </g>
        <g id="Group_13291" transform="translate(38.176 11.645)">
            <path id="Path_28604" d="M34.847 26.952c-.081 0-.146 0-.195-.008a10.1 10.1 0 0 1-10.091-10.083 9.7 9.7 0 0 1 .681-3.621 1.5 1.5 0 1 1 2.786 1.114 6.727 6.727 0 0 0-.467 2.507 7.09 7.09 0 0 0 7.08 7.084l.169.006a1.5 1.5 0 0 1 .418 2.968 2.123 2.123 0 0 1-.381.033zm-.173-2.983zm.188-.017z" transform="translate(-24.561 -12.297)"/>
        </g>
        <g id="Group_13292" transform="translate(35.495 11.646)">
            <path id="Path_28605" d="M39.3 26.541a1.5 1.5 0 0 1-1.5-1.5v-9.328a.418.418 0 0 0-.416-.416H24.629a1.5 1.5 0 0 1 0-3h12.758a3.419 3.419 0 0 1 3.413 3.416v9.328a1.5 1.5 0 0 1-1.5 1.5z" transform="translate(-23.131 -12.297)"/>
        </g>
        <g id="Group_13293" transform="translate(45.78 23.294)">
            <path id="Path_28606" d="M30.117 30.758h-.047a1.5 1.5 0 0 1-1.453-1.545 46.5 46.5 0 0 1 1.327-9.564 1.5 1.5 0 1 1 2.912.718 43.3 43.3 0 0 0-1.239 8.933 1.5 1.5 0 0 1-1.5 1.458z" transform="translate(-28.617 -18.509)"/>
        </g>
        <g id="Group_13294" transform="translate(54.514 20.649)">
            <path id="Path_28607" d="M45.922 47.433a1.5 1.5 0 0 1-1.5-1.5A37.323 37.323 0 0 0 33.7 19.647a1.5 1.5 0 1 1 2.141-2.1 40.3 40.3 0 0 1 11.581 28.386 1.5 1.5 0 0 1-1.5 1.5z" transform="translate(-33.275 -17.099)"/>
        </g>
        <g id="Group_13295" transform="translate(64.687 54.248)">
            <path id="Path_28608" d="M53.648 38.016H40.2a1.5 1.5 0 1 1 0-3h13.448a1.5 1.5 0 1 1 0 3z" transform="translate(-38.7 -35.018)"/>
        </g>
        <g id="Group_13296" transform="translate(50.167 55.646)">
            <path id="Path_28609" d="M67.567 45.754H32.456a1.5 1.5 0 0 1-1.5-1.5V40.71a1.5 1.5 0 0 1 3 0v2.044h33.611a.421.421 0 0 0 .416-.414v-5.078a1.5 1.5 0 0 1 3 0v5.078a3.42 3.42 0 0 1-3.416 3.414z" transform="translate(-30.956 -35.764)"/>
        </g>
        <g id="Group_13297" transform="translate(71.133 26.8)">
            <circle id="Ellipse_1775" cx="15.263" cy="15.263" r="15.263" class="cls-1"/>
        </g>
        <g id="Group_13298" transform="translate(69.633 25.301)">
            <path id="Path_28610" d="M58.1 53.1a16.762 16.762 0 1 1 16.763-16.759A16.78 16.78 0 0 1 58.1 53.1zm0-30.525a13.763 13.763 0 1 0 13.763 13.766A13.779 13.779 0 0 0 58.1 22.578z" transform="translate(-41.338 -19.58)"/>
        </g>
        <g id="Group_13299" transform="translate(84.896 25.301)">
            <path id="Path_28611" d="M50.978 24.1a1.5 1.5 0 0 1-1.5-1.5v-1.522a1.5 1.5 0 0 1 3 0V22.6a1.5 1.5 0 0 1-1.5 1.5z" transform="translate(-49.478 -19.58)"/>
        </g>
        <g id="Group_13300" transform="translate(84.896 54.298)">
            <path id="Path_28612" d="M50.978 39.571a1.5 1.5 0 0 1-1.5-1.5v-1.526a1.5 1.5 0 1 1 3 0v1.526a1.5 1.5 0 0 1-1.5 1.5z" transform="translate(-49.478 -35.045)"/>
        </g>
        <g id="Group_13301" transform="translate(69.633 40.562)">
            <path id="Path_28613" d="M44.364 30.719h-1.526a1.5 1.5 0 1 1 0-3h1.526a1.5 1.5 0 1 1 0 3z" transform="translate(-41.338 -27.719)"/>
        </g>
        <g id="Group_13302" transform="translate(84.896 31.427)">
            <path id="Path_28614" d="M56.942 34.982h-5.964a1.5 1.5 0 0 1-1.5-1.5v-9.137a1.5 1.5 0 0 1 3 0v7.637h4.464a1.5 1.5 0 0 1 0 3z" transform="translate(-49.478 -22.847)"/>
        </g>
        <g id="Group_13303" transform="translate(98.632 40.562)">
            <path id="Path_28615" d="M59.83 30.719H58.3a1.5 1.5 0 0 1 0-3h1.53a1.5 1.5 0 0 1 0 3z" transform="translate(-56.804 -27.719)"/>
        </g>
        <g id="Group_13304" transform="translate(92.714 62.383)">
            <path id="Path_28616" d="M63.683 42.357h-8.535a1.5 1.5 0 1 1 0-3h8.535a1.5 1.5 0 0 1 0 3z" transform="translate(-53.648 -39.357)"/>
        </g>
        <g id="Group_13305" transform="translate(92.714 68.331)">
            <path id="Path_28617" d="M61.767 45.529h-6.619a1.5 1.5 0 1 1 0-3h6.619a1.5 1.5 0 0 1 0 3z" transform="translate(-53.648 -42.529)"/>
        </g>
        <g id="Group_13306" transform="translate(92.714 74.28)">
            <path id="Path_28618" d="M59.852 48.7h-4.7a1.5 1.5 0 1 1 0-3h4.7a1.5 1.5 0 1 1 0 3z" transform="translate(-53.648 -45.702)"/>
        </g>
        <g id="Group_13307" transform="translate(29.508 36.142)">
            <path id="Path_28619" d="M21.438 34.251a1.5 1.5 0 0 1-1.5-1.5v-5.889a1.5 1.5 0 1 1 3 0v5.889a1.5 1.5 0 0 1-1.5 1.5z" transform="translate(-19.938 -25.362)"/>
        </g>
        <g id="Group_13308" transform="translate(29.641 76.789)">
            <path id="Path_28620" d="M50.654 50.04H21.507a1.5 1.5 0 0 1 0-3h29.147a1.5 1.5 0 1 1 0 3z" transform="translate(-20.009 -47.04)"/>
        </g>
    </g>
    <path id="Rectangle_13733" fill="none" d="M0 0H120V120H0z"/>
</svg>
