<svg xmlns="http://www.w3.org/2000/svg" id="Group_13353" width="120" height="120" viewBox="0 0 120 120">
    <defs>
        <style>
            .cls-1{fill:#7f5eff}
        </style>
    </defs>
    <g id="Group_13350" transform="translate(21.308 7.875)">
        <g id="Group_13342" transform="translate(13.899 34.575)">
            <g id="Group_13340">
                <path id="Path_28638" d="M35.967 57.742a1.5 1.5 0 0 1-1.061-.439l-15.69-15.69a1.5 1.5 0 0 1 1.061-2.561h8.207a6.706 6.706 0 0 0 0-13.412h-8.207a1.5 1.5 0 0 1 0-3H43.1a1.5 1.5 0 0 1 0 3h-7.607a9.7 9.7 0 0 1-7.009 16.412H23.9l13.128 13.129a1.5 1.5 0 0 1-1.061 2.561z" transform="translate(-18.777 -22.64)"/>
            </g>
            <g id="Group_13341" transform="translate(0 8.207)">
                <path id="Path_28639" d="M43.1 30.015H20.277a1.5 1.5 0 1 1 0-3H43.1a1.5 1.5 0 1 1 0 3z" transform="translate(-18.777 -27.017)"/>
            </g>
        </g>
        <g id="Group_13344">
            <g id="Group_13343" transform="translate(0 .002)">
                <path id="Path_28640" d="M56.585 108.449H19.768a8.413 8.413 0 0 1-8.4-8.4V12.6a8.413 8.413 0 0 1 8.4-8.4h36.817a8.412 8.412 0 0 1 8.4 8.4v87.441a8.412 8.412 0 0 1-8.4 8.408zM19.768 7.2a5.41 5.41 0 0 0-5.4 5.4v87.441a5.41 5.41 0 0 0 5.4 5.4h36.817a5.41 5.41 0 0 0 5.4-5.4V12.6a5.41 5.41 0 0 0-5.4-5.4z" transform="translate(-11.364 -4.201)"/>
            </g>
            <g id="Line_651" transform="translate(18.883 94.018)">
                <path id="Path_28641" d="M35.8 57.343H22.933a1.5 1.5 0 0 1 0-3H35.8a1.5 1.5 0 0 1 0 3z" transform="translate(-21.435 -54.343)"/>
            </g>
            <g id="Rectangle_12171" transform="translate(10.879)">
                <path id="Path_28642" d="M17.965 5h28.871v3.786a3.447 3.447 0 0 1-3.448 3.446H21.413a3.448 3.448 0 0 1-3.448-3.446V5z" class="cls-1" transform="translate(-16.467 -3.5)"/>
                <path id="Path_28643" d="M44.087 14.432H22.112a4.951 4.951 0 0 1-4.946-4.946V5.7a1.5 1.5 0 0 1 1.5-1.5h28.869a1.5 1.5 0 0 1 1.5 1.5v3.786a4.952 4.952 0 0 1-4.948 4.946zM20.164 7.2v2.286a1.951 1.951 0 0 0 1.948 1.948h21.975a1.951 1.951 0 0 0 1.948-1.948V7.2z" transform="translate(-17.166 -4.2)"/>
            </g>
        </g>
        <g id="Group_13349" transform="translate(58.069 15.142)">
            <g id="Group_13345" transform="translate(1.501 34.075)">
                <path id="Rectangle_13737" d="M4.351 0h47.165a2.016 2.016 0 0 1 2.016 2.016V14.3a2.016 2.016 0 0 1-2.016 2.016H4.351A4.351 4.351 0 0 1 0 11.964V4.351A4.351 4.351 0 0 1 4.351 0z" class="cls-1" transform="rotate(-90 26.766 26.766)"/>
            </g>
            <g id="Group_13346" transform="translate(0 32.576)">
                <path id="Path_28644" d="M51.992 86.181a9.67 9.67 0 0 1-9.658-9.658v-41.6a5.286 5.286 0 0 1 5.28-5.278h8.756a5.285 5.285 0 0 1 5.28 5.278v41.6a9.67 9.67 0 0 1-9.658 9.658zM47.614 32.65a2.282 2.282 0 0 0-2.28 2.278v41.6a6.658 6.658 0 1 0 13.316 0v-41.6a2.282 2.282 0 0 0-2.28-2.278z" transform="translate(-42.334 -29.65)"/>
            </g>
            <g id="Group_13347" transform="translate(1.282)">
                <path id="Path_28645" d="M54.534 47.852a1.5 1.5 0 0 1-1.5-1.5V28.828a1.5 1.5 0 0 1 .66-1.245l2.664-1.8-2.88-10.513h-4.186l-3.03 10.53 2.651 1.787a1.5 1.5 0 0 1 .66 1.245v17.52a1.5 1.5 0 1 1-3 0V29.625l-2.9-1.952a1.5 1.5 0 0 1-.6-1.659l3.65-12.654a1.5 1.5 0 0 1 1.44-1.084h6.461a1.5 1.5 0 0 1 1.446 1.1l3.467 12.654a1.5 1.5 0 0 1-.609 1.641l-2.895 1.952v16.729a1.5 1.5 0 0 1-1.499 1.5z" transform="translate(-43.018 -12.276)"/>
            </g>
            <g id="Group_13348" transform="translate(8.158 41.184)">
                <path id="Path_28646" d="M48.185 73.556a1.5 1.5 0 0 1-1.5-1.5V35.741a1.5 1.5 0 0 1 3 0v36.315a1.5 1.5 0 0 1-1.5 1.5z" transform="translate(-46.685 -34.241)"/>
            </g>
        </g>
    </g>
    <path id="Rectangle_13738" fill="none" d="M0 0H120V120H0z"/>
</svg>
