<svg xmlns="http://www.w3.org/2000/svg" width="120" height="120" viewBox="0 0 120 120">
    <defs>
        <style>
            .cls-1{fill:#7f5eff}
        </style>
    </defs>
    <g id="Group_13352" transform="translate(-148.811)">
        <g id="Group_13339" transform="translate(187.205 16.116)">
            <g id="Group_13337">
                <g id="Group_13336" transform="translate(0 .002)">
                    <path id="Path_28632" d="M207.39 96.363h-30.823a7.288 7.288 0 0 1-7.279-7.281V15.875a7.286 7.286 0 0 1 7.279-7.275h30.823a7.288 7.288 0 0 1 7.281 7.279v16.353a1.5 1.5 0 0 1-3 0V15.875a4.287 4.287 0 0 0-4.283-4.281h-30.821a4.284 4.284 0 0 0-4.279 4.281v73.207a4.284 4.284 0 0 0 4.279 4.281h30.823a4.287 4.287 0 0 0 4.283-4.281V85.1a1.5 1.5 0 0 1 3 0v3.983a7.289 7.289 0 0 1-7.283 7.28z" transform="translate(-169.288 -8.596)"/>
                </g>
                <g id="Line_651" transform="translate(15.808 78.714)">
                    <path id="Path_28633" d="M189.985 53.576h-10.766a1.5 1.5 0 1 1 0-3h10.766a1.5 1.5 0 1 1 0 3z" transform="translate(-177.719 -50.576)"/>
                </g>
                <g id="Rectangle_12171" transform="translate(9.107)">
                    <path id="Path_28634" d="M174.944 9.4h24.171v3.169a2.886 2.886 0 0 1-2.886 2.886h-18.4a2.887 2.887 0 0 1-2.888-2.886V9.4z" class="cls-1" transform="translate(-173.446 -7.895)"/>
                    <path id="Path_28635" d="M196.928 17.649h-18.4a4.388 4.388 0 0 1-4.384-4.386V10.1a1.5 1.5 0 0 1 1.5-1.5h24.171a1.5 1.5 0 0 1 1.5 1.5v3.169a4.39 4.39 0 0 1-4.387 4.38zm-19.785-6.054v1.669a1.389 1.389 0 0 0 1.386 1.388h18.4a1.389 1.389 0 0 0 1.386-1.388v-1.669z" transform="translate(-174.145 -8.595)"/>
                </g>
            </g>
            <g id="Group_13338" transform="translate(7.302 22.129)">
                <path id="Path_28636" d="M224.069 81.679a7.358 7.358 0 0 0 10.4 0 7.357 7.357 0 0 0 0-10.406l-19.126-19.131a12.022 12.022 0 0 1-3.506-9.812 19 19 0 0 0-26.019-19.742l9.527 9.527-3.784 6.664-6.649 3.771-9.527-9.527a19.01 19.01 0 0 0 19.762 26.029 12.007 12.007 0 0 1 9.8 3.508z" class="cls-1" transform="translate(-172.477 -19.694)"/>
                <path id="Path_28637" d="M229.977 86.037a8.788 8.788 0 0 1-6.263-2.6L204.6 64.324a10.439 10.439 0 0 0-8.574-3.079A20.514 20.514 0 0 1 174.7 33.16a1.5 1.5 0 0 1 2.451-.495l8.719 8.721 5.3-3 3.019-5.31-8.721-8.719a1.5 1.5 0 0 1 .5-2.451 20.5 20.5 0 0 1 28.073 21.3 10.464 10.464 0 0 0 3.075 8.584l19.131 19.129a8.858 8.858 0 0 1-6.261 15.122zM197.168 58.18a13.483 13.483 0 0 1 9.546 4.022l19.121 19.119a6 6 0 0 0 8.284 0 5.868 5.868 0 0 0 0-8.284l-19.131-19.13a13.438 13.438 0 0 1-3.937-11.04A17.495 17.495 0 0 0 189.3 23.952l7.807 7.808a1.5 1.5 0 0 1 .244 1.8l-3.786 6.664a1.5 1.5 0 0 1-.564.564l-6.649 3.771a1.5 1.5 0 0 1-1.8-.244l-7.808-7.815a17.516 17.516 0 0 0 18.941 21.763 13.111 13.111 0 0 1 1.483-.083z" transform="translate(-173.182 -20.397)"/>
            </g>
        </g>
        <path id="Rectangle_13736" fill="none" d="M0 0H120V120H0z" transform="translate(148.811)"/>
    </g>
</svg>
