<?xml version="1.0" standalone="no"?>
<!DOCTYPE svg PUBLIC "-//W3C//DTD SVG 20010904//EN"
 "http://www.w3.org/TR/2001/REC-SVG-20010904/DTD/svg10.dtd">
<svg version="1.0" xmlns="http://www.w3.org/2000/svg"
 width="550.000000pt" height="366.000000pt" viewBox="0 0 550.000000 366.000000"
 preserveAspectRatio="xMidYMid meet">
<metadata>
Created by potrace 1.16, written by Peter Selinger 2001-2019
</metadata>
<g transform="translate(0.000000,366.000000) scale(0.100000,-0.100000)"
fill="#000000" stroke="none">
<path d="M1380 1830 l0 -1830 2060 0 2060 0 0 1830 0 1830 -2060 0 -2060 0 0
-1830z m1632 962 c-132 -132 -221 -287 -269 -471 -21 -81 -25 -118 -25 -241
-1 -125 3 -159 26 -245 93 -354 344 -612 701 -722 84 -25 102 -27 275 -27 173
0 191 2 275 27 153 47 258 107 414 234 l34 28 -18 -35 c-220 -431 -691 -671
-1164 -595 -238 39 -444 148 -615 325 -126 131 -204 260 -260 433 -76 234 -57
555 47 779 78 171 235 356 386 457 64 44 236 130 259 131 6 0 -23 -35 -66 -78z
m969 -297 l37 -39 118 52 c65 28 119 50 120 49 2 -1 -27 -53 -63 -115 l-65
-113 24 -27 c105 -116 148 -166 145 -168 -2 -2 -53 7 -113 21 -60 14 -117 25
-126 25 -12 0 -39 -36 -79 -105 -34 -58 -65 -105 -69 -105 -4 0 -12 55 -19
122 -6 67 -17 125 -23 129 -6 4 -62 17 -124 30 -63 13 -114 26 -114 30 0 4 52
29 116 55 l116 49 -6 60 c-3 33 -8 94 -12 135 l-6 75 53 -60 c30 -33 70 -78
90 -100z"/>
</g>
</svg>
